<svg id="Calque_3" data-name="Calque 3" 
  xmlns="http://www.w3.org/2000/svg" viewBox="0 0 710.52 362.61">
  <defs>
    <style>.cls-1{fill:#fff;stroke:#00abe9;stroke-miterlimit:10;stroke-width:2.5px;}.cls-2{fill:#00abe9;}.cls-3{fill:#133b7b;}</style>
  </defs>
  <title>Logo carte NL 2018_1</title>
  <path class="cls-1" d="M137.93,355.22v41.62c0,23.6,21.3,43.64,47.34,44.53l538.09,18.39c26,.89,47.34-17.69,47.34-41.29V141c0-23.6-21.3-42.18-47.34-41.29L280.51,114.85l-82,2.8-13.23.45c-26,.89-47.34,20.93-47.34,44.53V279.82H67.17c-4,0-6,4.32-3.2,6.88Z" transform="translate(-61.43 -98.43)"/>
  <path class="cls-2" d="M291.78,339.22h-.3a20,20,0,0,1-17.6-11.07l-40.93-82a20,20,0,1,1,35.79-17.86l24.53,49.15c22.32-35.42,61.85-91.24,106.31-122.63a20,20,0,1,1,23.09,32.68c-59.56,42-112.74,140.24-113.27,141.23a20,20,0,0,1-17.62,10.53" transform="translate(-61.43 -98.43)"/>
  <path class="cls-3" d="M381.26,253a16.45,16.45,0,0,0-16.44,16.08v63.48a19.32,19.32,0,0,1-19.31,19.31H237.81a19.31,19.31,0,0,1-19.3-19.31V224.73a19.31,19.31,0,0,1,19.3-19.3h83.41a16.46,16.46,0,1,0,0-32.92H227.6a42,42,0,0,0-42,42V342.83a42,42,0,0,0,42,42H355.74a42,42,0,0,0,42-42V269.47A16.46,16.46,0,0,0,381.26,253" transform="translate(-61.43 -98.43)"/>
  <path class="cls-3" d="M453.14,215h8.37v23.48c0,10.58-5.06,14.27-13.22,14.27a21.87,21.87,0,0,1-6.12-.88l.94-6.77a13.65,13.65,0,0,0,4.3.66c3.52,0,5.73-1.59,5.73-7.44Z" transform="translate(-61.43 -98.43)"/>
  <path class="cls-3" d="M474.68,241.29c.29,3.46,3.71,5.11,7.62,5.11a23.75,23.75,0,0,0,7.44-1.1l1.1,5.69a26.65,26.65,0,0,1-9.76,1.69c-9.15,0-14.39-5.34-14.39-13.78,0-6.83,4.26-14.37,13.62-14.37,8.7,0,12,6.77,12,13.39a19.38,19.38,0,0,1-.28,3.31Zm9.87-5.73c0-2.06-.88-5.46-4.73-5.46-3.53,0-5,3.19-5.18,5.46Z" transform="translate(-61.43 -98.43)"/>
  <path class="cls-3" d="M540.15,237.92c-.16-4.46-.32-9.86-.32-15.26h-.17c-1.16,4.74-2.71,10-4.13,14.38l-4.47,14.5h-6.54l-4-14.33c-1.22-4.47-2.48-9.7-3.36-14.55h-.1c-.23,5-.39,10.74-.67,15.38l-.66,14.11H508l2.38-37.2h11.19l3.63,12.41c1.16,4.24,2.32,8.93,3.14,13.27h.09c1.06-4.3,2.32-9.2,3.53-13.39l4-12.35h11l2,37.2h-8.21Z" transform="translate(-61.43 -98.43)"/>
  <path class="cls-3" d="M577.74,245.59a40.06,40.06,0,0,0,.39,6.56h-7.56l-.49-2.71h-.17a9.68,9.68,0,0,1-7.72,3.3,8.25,8.25,0,0,1-8.69-7.8c0-.15,0-.3,0-.46,0-7,6.28-10.41,15.81-10.31v-.32c0-1.49-.77-3.47-4.91-3.47a15.23,15.23,0,0,0-7.44,2l-1.48-5.4a22.23,22.23,0,0,1,10.41-2.37c8.93,0,11.91,5.28,11.91,11.62Zm-8.15-6.18c-4.47,0-7.83,1-7.83,4.24a3,3,0,0,0,2.72,3.21,2.8,2.8,0,0,0,.58,0,4.58,4.58,0,0,0,4.36-3.08,6.25,6.25,0,0,0,.17-1.49Z" transform="translate(-61.43 -98.43)"/>
  <path class="cls-3" d="M592.72,236.55h.11c.61-1.11,1.28-2.21,1.93-3.26l5.46-8.09h10.09l-9.65,10.91,11.07,16H601.31l-6.5-11.09-2.15,2.65v8.44h-8.31V213h8.37Z" transform="translate(-61.43 -98.43)"/>
  <path class="cls-3" d="M619.9,241.29c.26,3.46,3.69,5.11,7.6,5.11a23.79,23.79,0,0,0,7.44-1.1L636,251a26.65,26.65,0,0,1-9.76,1.69c-9.14,0-14.38-5.34-14.38-13.78,0-6.83,4.25-14.37,13.62-14.37,8.7,0,12,6.77,12,13.39a18.43,18.43,0,0,1-.29,3.31Zm9.86-5.73c0-2.06-.89-5.46-4.75-5.46-3.52,0-5,3.19-5.17,5.46Z" transform="translate(-61.43 -98.43)"/>
  <path class="cls-3" d="M642.54,213h8.38v39.14h-8.38Z" transform="translate(-61.43 -98.43)"/>
  <path class="cls-3" d="M680.17,245.59a42.4,42.4,0,0,0,.39,6.56H673l-.49-2.71h-.18a9.66,9.66,0,0,1-7.71,3.3A8.23,8.23,0,0,1,656,245c0-.16,0-.32,0-.49,0-7,6.28-10.41,15.82-10.31v-.32c0-1.49-.77-3.47-4.91-3.47a15.2,15.2,0,0,0-7.44,2l-1.49-5.4a22.3,22.3,0,0,1,10.42-2.37c8.93,0,11.9,5.28,11.9,11.62ZM672,239.41c-4.46,0-7.83,1-7.83,4.24a3,3,0,0,0,2.73,3.21,2.82,2.82,0,0,0,.58,0,4.57,4.57,0,0,0,4.36-3.08,6.8,6.8,0,0,0,.16-1.49Z" transform="translate(-61.43 -98.43)"/>
  <path class="cls-3" d="M709.28,245.59a40.06,40.06,0,0,0,.39,6.56h-7.56l-.49-2.71h-.17a9.68,9.68,0,0,1-7.72,3.3,8.24,8.24,0,0,1-8.69-7.8c0-.15,0-.3,0-.46,0-7,6.28-10.41,15.82-10.31v-.32c0-1.49-.77-3.47-4.91-3.47a15.2,15.2,0,0,0-7.44,2L687,227a22.3,22.3,0,0,1,10.42-2.37c8.93,0,11.9,5.28,11.9,11.62Zm-8.16-6.18c-4.46,0-7.82,1-7.82,4.24a3,3,0,0,0,2.72,3.21,2.81,2.81,0,0,0,.58,0,4.55,4.55,0,0,0,4.35-3.08,5.78,5.78,0,0,0,.17-1.49Z" transform="translate(-61.43 -98.43)"/>
  <path class="cls-3" d="M715.88,234.07c0-4-.1-6.56-.22-8.93h7.22l.28,5h.16a7.92,7.92,0,0,1,7.28-5.57,9.4,9.4,0,0,1,1.76.1v8a7.87,7.87,0,0,0-2.26-.28,5.38,5.38,0,0,0-5.73,4.24,10.66,10.66,0,0,0-.17,1.87v13.68h-8.32Z" transform="translate(-61.43 -98.43)"/>
  <path class="cls-2" d="M517.64,276.36h4.15v21.47c0,8.52-4.19,11.14-9.71,11.14a13.63,13.63,0,0,1-4.47-.76l.63-3.39a9.51,9.51,0,0,0,3.46.63c3.72,0,6-1.67,6-8Z" transform="translate(-61.43 -98.43)"/>
  <path class="cls-2" d="M530.88,297.69c.09,5.67,3.72,8,7.91,8a15.06,15.06,0,0,0,6.38-1.19l.71,3a18.65,18.65,0,0,1-7.66,1.48c-7.1,0-11.34-4.71-11.34-11.66s4.09-12.44,10.82-12.44c7.51,0,9.52,6.62,9.52,10.86a12.81,12.81,0,0,1-.15,1.95Zm12.29-3c0-2.68-1.1-6.82-5.81-6.82-4.24,0-6.09,3.9-6.43,6.82Z" transform="translate(-61.43 -98.43)"/>
  <path class="cls-2" d="M562.5,274.65h4.16v14.47h.08a8.61,8.61,0,0,1,7.86-4.24c5.71,0,9.78,4.76,9.72,11.77,0,8.25-5.2,12.34-10.33,12.34a8.23,8.23,0,0,1-7.72-4.33h-.14l-.19,3.81h-3.63c.1-1.58.19-3.92.19-6Zm4.16,24.58a6.83,6.83,0,0,0,.19,1.49,6.46,6.46,0,0,0,6.28,4.91c4.39,0,7-3.58,7-8.93,0-4.62-2.38-8.57-6.86-8.57a6.67,6.67,0,0,0-6.39,5.15,7.49,7.49,0,0,0-.23,1.71Z" transform="translate(-61.43 -98.43)"/>
  <path class="cls-2" d="M591.94,297.69c.1,5.67,3.72,8,7.91,8a15.23,15.23,0,0,0,6.39-1.19l.71,3a18.9,18.9,0,0,1-7.68,1.48c-7.1,0-11.34-4.71-11.34-11.66s4.11-12.44,10.82-12.44c7.53,0,9.52,6.62,9.52,10.86a16,16,0,0,1-.13,1.95Zm12.29-3c0-2.68-1.09-6.82-5.81-6.82-4.24,0-6.1,3.9-6.42,6.82Z" transform="translate(-61.43 -98.43)"/>
  <path class="cls-2" d="M612.9,304.17a10.83,10.83,0,0,0,5.52,1.68c3.05,0,4.47-1.49,4.47-3.44s-1.19-3.09-4.29-4.24c-4.15-1.49-6.1-3.76-6.1-6.52,0-3.72,3-6.77,8-6.77a11.52,11.52,0,0,1,5.65,1.49l-1,3.05a9.12,9.12,0,0,0-4.71-1.34c-2.47,0-3.86,1.49-3.86,3.16s1.39,2.75,4.38,3.9c4,1.48,6,3.52,6,6.94,0,4.07-3.14,7-8.61,7a13.24,13.24,0,0,1-6.49-1.62Z" transform="translate(-61.43 -98.43)"/>
  <path class="cls-2" d="M637.38,279.88v5.52h6v3.2h-6V301c0,2.85.8,4.46,3.14,4.46a7.78,7.78,0,0,0,2.45-.22l.2,3.14a9.83,9.83,0,0,1-3.72.62,5.83,5.83,0,0,1-4.47-1.81c-1.19-1.24-1.6-3.29-1.6-6V288.6h-3.59v-3.2h3.59v-4.24Z" transform="translate(-61.43 -98.43)"/>
  <path class="cls-2" d="M650.15,297.69c.09,5.67,3.7,8,7.9,8a15.18,15.18,0,0,0,6.38-1.19l.71,3a18.65,18.65,0,0,1-7.66,1.48c-7.1,0-11.34-4.71-11.34-11.66s4.1-12.44,10.81-12.44c7.53,0,9.53,6.62,9.53,10.86a18.26,18.26,0,0,1-.14,1.95Zm12.29-3c0-2.68-1.1-6.82-5.82-6.82-4.24,0-6.1,3.9-6.43,6.82Z" transform="translate(-61.43 -98.43)"/>
  <path class="cls-2" d="M481,358.69l-10.41-32.1h4.46L480,342.47c1.37,4.34,2.58,8.24,3.43,12h.1c.89-3.71,2.23-7.77,3.66-11.91l5.48-16h4.46l-11.49,32.1Z" transform="translate(-61.43 -98.43)"/>
  <path class="cls-2" d="M501.17,347.93c.09,5.67,3.7,8,7.9,8a15.18,15.18,0,0,0,6.38-1.19l.72,3a18.51,18.51,0,0,1-7.67,1.49c-7.09,0-11.33-4.7-11.33-11.67s4.09-12.42,10.81-12.42c7.52,0,9.53,6.62,9.53,10.86a16,16,0,0,1-.15,1.95Zm12.29-3c0-2.66-1.1-6.81-5.82-6.81-4.24,0-6.1,3.91-6.43,6.81Z" transform="translate(-61.43 -98.43)"/>
  <path class="cls-2" d="M522.7,342.83c0-2.71,0-5.05-.19-7.19h3.66l.15,4.46h.19a6.89,6.89,0,0,1,6.38-5,4.77,4.77,0,0,1,1.19.13v4a6.15,6.15,0,0,0-1.48-.15c-3,0-5.06,2.25-5.63,5.39a10.56,10.56,0,0,0-.19,1.95v12.29h-4.14Z" transform="translate(-61.43 -98.43)"/>
  <path class="cls-2" d="M536.08,356.26l10.41-13.57c1-1.23,2-2.33,3-3.57V339H537v-3.38H554.6v2.62l-10.29,13.39c-1,1.29-1.91,2.44-3,3.63v.09h13.48v3.33H536.08Z" transform="translate(-61.43 -98.43)"/>
  <path class="cls-2" d="M561.13,347.93c.11,5.67,3.72,8,7.92,8a15.18,15.18,0,0,0,6.38-1.19l.72,3a18.59,18.59,0,0,1-7.68,1.49c-7.1,0-11.34-4.7-11.34-11.67s4.11-12.42,10.82-12.42c7.53,0,9.52,6.62,9.52,10.86a16,16,0,0,1-.13,1.95Zm12.3-3c0-2.66-1.09-6.81-5.81-6.81-4.24,0-6.1,3.91-6.43,6.81Z" transform="translate(-61.43 -98.43)"/>
  <path class="cls-2" d="M586.76,346.22h.09c.56-.82,1.38-1.82,2-2.62l6.76-8h5l-8.93,9.48,10.15,13.57h-5.07l-8-11L586.76,350v8.66h-4.15V324.88h4.15Z" transform="translate(-61.43 -98.43)"/>
  <path class="cls-2" d="M607.26,347.93c.09,5.67,3.72,8,7.9,8a15.23,15.23,0,0,0,6.39-1.19l.71,3a18.49,18.49,0,0,1-7.66,1.49c-7.1,0-11.34-4.7-11.34-11.67s4.09-12.42,10.82-12.42c7.53,0,9.52,6.62,9.52,10.86a12.81,12.81,0,0,1-.15,1.95Zm12.29-3c0-2.66-1.1-6.81-5.82-6.81-4.22,0-6.08,3.91-6.42,6.81Z" transform="translate(-61.43 -98.43)"/>
  <path class="cls-2" d="M628.81,342.83c0-2.71,0-5.05-.2-7.19h3.67l.14,4.46h.14a6.88,6.88,0,0,1,6.38-5,4.77,4.77,0,0,1,1.19.13v4a6.23,6.23,0,0,0-1.49-.15c-3,0-5.06,2.25-5.62,5.39a11.5,11.5,0,0,0-.19,1.95v12.29h-4.14Z" transform="translate(-61.43 -98.43)"/>
  <path class="cls-2" d="M649.24,329.17a2.61,2.61,0,0,1-5.2,0,2.55,2.55,0,0,1,2.47-2.62h.15a2.48,2.48,0,0,1,2.58,2.39Zm-4.67,29.52V335.64h4.19v23.05Z" transform="translate(-61.43 -98.43)"/>
  <path class="cls-2" d="M655.71,341.87c0-2.38,0-4.33-.19-6.23h3.72l.24,3.81h.08a8.52,8.52,0,0,1,7.64-4.33c3.18,0,8.14,1.9,8.14,9.8v13.77h-4.2V345.44c0-3.7-1.38-6.81-5.33-6.81a6.15,6.15,0,0,0-5.95,6.25v13.85h-4.19Z" transform="translate(-61.43 -98.43)"/>
  <path class="cls-2" d="M701.82,355.35c0,5.29-1.05,8.53-3.29,10.54a12.27,12.27,0,0,1-8.39,2.75,14.87,14.87,0,0,1-7.66-1.9l1-3.19a13,13,0,0,0,6.77,1.8c4.29,0,7.44-2.23,7.44-8.05v-2.56h-.09a8.25,8.25,0,0,1-7.33,3.86c-5.72,0-9.81-4.87-9.81-11.25,0-7.81,5.09-12.23,10.42-12.23a7.69,7.69,0,0,1,7.2,4h.09l.19-3.48h3.66c-.09,1.66-.18,3.52-.18,6.34Zm-4.15-10.62a5.55,5.55,0,0,0-.24-1.9,6,6,0,0,0-5.86-4.47c-4,0-6.86,3.38-6.86,8.71,0,4.46,2.29,8.28,6.82,8.28a6.09,6.09,0,0,0,5.81-4.28,7.05,7.05,0,0,0,.33-2.23Z" transform="translate(-61.43 -98.43)"/>
</svg>