<svg id="Calque_1" data-name="Calque 1" 
  xmlns="http://www.w3.org/2000/svg" viewBox="0 0 634.31 412.85">
  <defs>
    <style>.cls-1{fill:#fff;stroke:#00abe9;stroke-miterlimit:10;stroke-width:2.5px;}.cls-2{fill:#00abe9;}.cls-3{fill:#133b7b;}</style>
  </defs>
  <title>Logo carte NL 2018_2</title>
  <path class="cls-1" d="M708.73,99.75,171.47,118.21c-26,.89-47.28,21-47.28,44.69V398c0,23.68,21.28,43.79,47.28,44.68l12.67.44a11.12,11.12,0,0,0-.34,2.65v57.87c0,6.76,4.41,8.49,9.8,3.82l71.2-61.57,443.93,15.25c26,.89,47.27-17.75,47.27-41.44V141.19C756,117.51,734.73,98.86,708.73,99.75Z" transform="translate(-122.94 -98.47)"/>
  <path class="cls-2" d="M277.08,339.26h-.3a20,20,0,0,1-17.6-11.07l-40.93-82A20,20,0,1,1,254,228.3l24.53,49.15c22.32-35.42,61.85-91.24,106.31-122.63A20,20,0,1,1,408,187.5C348.41,229.55,295.23,327.74,294.7,328.73a20,20,0,0,1-17.62,10.53" transform="translate(-122.94 -98.47)"/>
  <path class="cls-3" d="M366.56,253.05a16.45,16.45,0,0,0-16.44,16.08v63.48a19.31,19.31,0,0,1-19.31,19.3H223.11a19.31,19.31,0,0,1-19.3-19.3V224.77a19.31,19.31,0,0,1,19.3-19.3h83.41a16.46,16.46,0,1,0,0-32.92H212.9a42,42,0,0,0-42,42V342.87a42,42,0,0,0,42,42H341a42,42,0,0,0,42-42V269.51a16.46,16.46,0,0,0-16.46-16.46" transform="translate(-122.94 -98.47)"/>
  <path class="cls-3" d="M438.82,213.08h8.38v23.48c0,10.58-5.06,14.27-13.23,14.27a21.74,21.74,0,0,1-6.11-.87l.93-6.77a13.93,13.93,0,0,0,4.3.65c3.53,0,5.73-1.59,5.73-7.44Z" transform="translate(-122.94 -98.47)"/>
  <path class="cls-3" d="M460.37,239.38c.28,3.46,3.7,5.11,7.62,5.11a23.79,23.79,0,0,0,7.44-1.1l1.1,5.69a26.65,26.65,0,0,1-9.76,1.69c-9.15,0-14.39-5.34-14.39-13.77,0-6.83,4.25-14.38,13.61-14.38,8.71,0,12,6.77,12,13.39a19.3,19.3,0,0,1-.29,3.31Zm9.86-5.73c0-2.06-.87-5.46-4.73-5.46-3.52,0-4.95,3.2-5.18,5.46Z" transform="translate(-122.94 -98.47)"/>
  <path class="cls-3" d="M525.84,236c-.16-4.46-.33-9.86-.33-15.26h-.16c-1.16,4.74-2.71,10-4.14,14.39l-4.46,14.49H510.2l-4-14.33c-1.22-4.46-2.49-9.7-3.36-14.55h-.11c-.22,5-.39,10.74-.67,15.38l-.65,14.11h-7.79L496,213h11.18l3.64,12.41c1.16,4.24,2.32,8.93,3.14,13.27h.08c1.06-4.3,2.33-9.19,3.53-13.39l4-12.35h11l2,37.2h-8.21Z" transform="translate(-122.94 -98.47)"/>
  <path class="cls-3" d="M563.43,243.68a41.12,41.12,0,0,0,.38,6.56h-7.56l-.49-2.71h-.16a9.68,9.68,0,0,1-7.72,3.3,8.26,8.26,0,0,1-8.7-7.8c0-.15,0-.3,0-.45,0-7,6.28-10.42,15.82-10.32v-.32c0-1.49-.77-3.47-4.91-3.47a15.17,15.17,0,0,0-7.44,2l-1.49-5.4a22.27,22.27,0,0,1,10.42-2.37c8.92,0,11.9,5.28,11.9,11.62Zm-8.16-6.18c-4.46,0-7.82,1-7.82,4.24a3,3,0,0,0,2.72,3.21,2.81,2.81,0,0,0,.58,0,4.59,4.59,0,0,0,4.36-3.08,6.24,6.24,0,0,0,.16-1.49Z" transform="translate(-122.94 -98.47)"/>
  <path class="cls-3" d="M578.41,234.64h.1c.61-1.11,1.28-2.21,1.94-3.25l5.46-8.1H596l-9.66,10.91,11.07,16H587l-6.51-11.09-2.14,2.65v8.44H570V211.1h8.38Z" transform="translate(-122.94 -98.47)"/>
  <path class="cls-3" d="M605.58,239.38c.27,3.46,3.69,5.11,7.6,5.11a23.7,23.7,0,0,0,7.44-1.1l1.11,5.69a26.46,26.46,0,0,1-9.77,1.69c-9.13,0-14.37-5.34-14.37-13.77,0-6.83,4.24-14.38,13.62-14.38,8.7,0,12,6.77,12,13.39a18.34,18.34,0,0,1-.28,3.31Zm9.87-5.73c0-2.06-.9-5.46-4.75-5.46-3.53,0-5,3.2-5.18,5.46Z" transform="translate(-122.94 -98.47)"/>
  <path class="cls-3" d="M628.23,211.1h8.38v39.14h-8.38Z" transform="translate(-122.94 -98.47)"/>
  <path class="cls-3" d="M665.86,243.68a42.4,42.4,0,0,0,.39,6.56H658.7l-.49-2.71H658a9.65,9.65,0,0,1-7.71,3.3,8.24,8.24,0,0,1-8.69-7.77c0-.16,0-.32,0-.48,0-7,6.28-10.42,15.82-10.32v-.32c0-1.49-.78-3.47-4.91-3.47a15.17,15.17,0,0,0-7.44,2l-1.49-5.4A22.26,22.26,0,0,1,654,222.74c8.93,0,11.91,5.28,11.91,11.62Zm-8.16-6.18c-4.46,0-7.82,1-7.82,4.24A3,3,0,0,0,652.6,245a2.81,2.81,0,0,0,.58,0,4.56,4.56,0,0,0,4.36-3.08,6.24,6.24,0,0,0,.16-1.49Z" transform="translate(-122.94 -98.47)"/>
  <path class="cls-3" d="M695,243.68a42.33,42.33,0,0,0,.39,6.56h-7.56l-.49-2.71h-.16a9.69,9.69,0,0,1-7.73,3.3,8.25,8.25,0,0,1-8.69-7.8c0-.15,0-.3,0-.45,0-7,6.28-10.42,15.82-10.32v-.32c0-1.49-.78-3.47-4.91-3.47a15.17,15.17,0,0,0-7.44,2l-1.49-5.4a22.26,22.26,0,0,1,10.41-2.37C692,222.74,695,228,695,234.36Zm-8.15-6.18c-4.46,0-7.83,1-7.83,4.24a3,3,0,0,0,2.73,3.21,2.82,2.82,0,0,0,.58,0,4.53,4.53,0,0,0,4.34-3.08,5.34,5.34,0,0,0,.18-1.49Z" transform="translate(-122.94 -98.47)"/>
  <path class="cls-3" d="M701.57,232.16c0-4-.1-6.56-.22-8.93h7.21l.29,5H709a7.9,7.9,0,0,1,7.28-5.57,8.58,8.58,0,0,1,1.75.11v7.94a7.83,7.83,0,0,0-2.26-.28,5.39,5.39,0,0,0-5.73,4.24,10.73,10.73,0,0,0-.16,1.87v13.68h-8.32Z" transform="translate(-122.94 -98.47)"/>
  <path class="cls-2" d="M503.33,274.45h4.15v21.47c0,8.53-4.2,11.14-9.72,11.14a13.78,13.78,0,0,1-4.46-.75l.62-3.4a9.56,9.56,0,0,0,3.47.63c3.72,0,5.95-1.67,5.95-8Z" transform="translate(-122.94 -98.47)"/>
  <path class="cls-2" d="M516.57,295.79c.09,5.66,3.72,8,7.9,8a15,15,0,0,0,6.38-1.19l.72,3a18.65,18.65,0,0,1-7.66,1.48c-7.1,0-11.34-4.71-11.34-11.66S516.66,283,523.38,283c7.52,0,9.53,6.62,9.53,10.86a12.71,12.71,0,0,1-.15,1.95Zm12.29-3c0-2.68-1.1-6.82-5.82-6.82-4.24,0-6.08,3.9-6.43,6.82Z" transform="translate(-122.94 -98.47)"/>
  <path class="cls-2" d="M548.19,272.74h4.15v14.47h.09a8.6,8.6,0,0,1,7.86-4.24c5.71,0,9.77,4.77,9.71,11.77,0,8.25-5.19,12.34-10.32,12.34a8.26,8.26,0,0,1-7.73-4.33h-.13l-.19,3.81H548c.1-1.58.19-3.91.19-5.95Zm4.15,24.58a7.5,7.5,0,0,0,.19,1.49,6.48,6.48,0,0,0,6.28,4.91c4.39,0,7-3.57,7-8.93,0-4.61-2.38-8.57-6.86-8.57a6.66,6.66,0,0,0-6.38,5.15,7.58,7.58,0,0,0-.24,1.71Z" transform="translate(-122.94 -98.47)"/>
  <path class="cls-2" d="M577.62,295.79c.11,5.66,3.72,8,7.92,8a15.18,15.18,0,0,0,6.38-1.19l.72,3a18.77,18.77,0,0,1-7.68,1.48c-7.1,0-11.34-4.71-11.34-11.66S577.73,283,584.44,283c7.53,0,9.52,6.62,9.52,10.86a18.24,18.24,0,0,1-.13,1.95Zm12.29-3c0-2.68-1.08-6.82-5.8-6.82-4.24,0-6.1,3.9-6.43,6.82Z" transform="translate(-122.94 -98.47)"/>
  <path class="cls-2" d="M598.59,302.26a10.8,10.8,0,0,0,5.52,1.68c3,0,4.46-1.49,4.46-3.44s-1.19-3.09-4.28-4.24c-4.16-1.49-6.1-3.76-6.1-6.52,0-3.72,3-6.77,8-6.77a11.52,11.52,0,0,1,5.65,1.49l-1,3.05a9.13,9.13,0,0,0-4.72-1.34c-2.47,0-3.85,1.49-3.85,3.16s1.38,2.75,4.37,3.9c4,1.48,6.06,3.52,6.06,6.95,0,4.06-3.14,7-8.62,7a13.21,13.21,0,0,1-6.48-1.62Z" transform="translate(-122.94 -98.47)"/>
  <path class="cls-2" d="M623.06,278v5.52h6v3.2h-6v12.43c0,2.86.81,4.46,3.14,4.46a7.54,7.54,0,0,0,2.46-.22l.19,3.14a9.83,9.83,0,0,1-3.72.62,5.81,5.81,0,0,1-4.46-1.81c-1.19-1.24-1.61-3.29-1.61-5.95V286.69h-3.58v-3.2h3.58v-4.24Z" transform="translate(-122.94 -98.47)"/>
  <path class="cls-2" d="M635.83,295.79c.09,5.66,3.71,8,7.9,8a15.07,15.07,0,0,0,6.39-1.19l.71,3a18.65,18.65,0,0,1-7.66,1.48c-7.1,0-11.34-4.71-11.34-11.66S635.92,283,642.63,283c7.53,0,9.54,6.62,9.54,10.86a16,16,0,0,1-.15,1.95Zm12.29-3c0-2.68-1.1-6.82-5.82-6.82-4.24,0-6.1,3.9-6.42,6.82Z" transform="translate(-122.94 -98.47)"/>
  <path class="cls-2" d="M466.71,356.78l-10.42-32.1h4.47l4.95,15.88c1.37,4.34,2.57,8.24,3.42,12h.11c.89-3.71,2.23-7.77,3.66-11.91l5.47-16h4.47l-11.49,32.1Z" transform="translate(-122.94 -98.47)"/>
  <path class="cls-2" d="M486.85,346c.09,5.67,3.71,8,7.91,8a15.53,15.53,0,0,0,6.38-1.19l.71,3a18.49,18.49,0,0,1-7.66,1.49c-7.1,0-11.34-4.7-11.34-11.67s4.09-12.42,10.82-12.42c7.51,0,9.52,6.62,9.52,10.86A16,16,0,0,1,503,346Zm12.3-3c0-2.66-1.11-6.81-5.82-6.81-4.24,0-6.1,3.91-6.43,6.81Z" transform="translate(-122.94 -98.47)"/>
  <path class="cls-2" d="M508.39,340.92c0-2.71,0-5.05-.2-7.19h3.66l.15,4.46h.19a6.9,6.9,0,0,1,6.39-5,4.77,4.77,0,0,1,1.19.13v4a7.46,7.46,0,0,0-1.49-.15c-3,0-5.06,2.25-5.62,5.39a10.57,10.57,0,0,0-.2,1.95v12.29h-4.13Z" transform="translate(-122.94 -98.47)"/>
  <path class="cls-2" d="M521.76,354.35l10.42-13.57c1-1.23,2-2.33,3-3.57v-.1H522.71v-3.38h17.58v2.62L530,349.74c-1,1.29-1.9,2.44-3,3.63v.09H540.5v3.33H521.76Z" transform="translate(-122.94 -98.47)"/>
  <path class="cls-2" d="M546.82,346c.1,5.67,3.72,8,7.92,8a15.53,15.53,0,0,0,6.38-1.19l.71,3a18.54,18.54,0,0,1-7.67,1.49c-7.1,0-11.34-4.7-11.34-11.67s4.1-12.42,10.82-12.42c7.52,0,9.52,6.62,9.52,10.86A16,16,0,0,1,563,346Zm12.29-3c0-2.66-1.09-6.81-5.8-6.81-4.24,0-6.1,3.91-6.43,6.81Z" transform="translate(-122.94 -98.47)"/>
  <path class="cls-2" d="M572.44,344.31h.09c.57-.82,1.39-1.82,2.06-2.62l6.75-8h5l-8.93,9.48,10.15,13.57h-5.08l-7.94-11-2.15,2.38v8.66h-4.15V323h4.15Z" transform="translate(-122.94 -98.47)"/>
  <path class="cls-2" d="M593,346c.09,5.67,3.72,8,7.9,8a15.5,15.5,0,0,0,6.38-1.19l.72,3a18.54,18.54,0,0,1-7.67,1.49c-7.09,0-11.33-4.7-11.33-11.67s4.09-12.42,10.81-12.42c7.53,0,9.53,6.62,9.53,10.86a16,16,0,0,1-.15,1.95Zm12.29-3c0-2.66-1.1-6.81-5.82-6.81-4.23,0-6.09,3.91-6.43,6.81Z" transform="translate(-122.94 -98.47)"/>
  <path class="cls-2" d="M614.49,340.92c0-2.71,0-5.05-.19-7.19H618l.15,4.46h.13a6.9,6.9,0,0,1,6.39-5,4.77,4.77,0,0,1,1.19.13v4a7.46,7.46,0,0,0-1.49-.15c-3,0-5.06,2.25-5.63,5.39a12.63,12.63,0,0,0-.19,1.95v12.29h-4.14Z" transform="translate(-122.94 -98.47)"/>
  <path class="cls-2" d="M634.92,327.26a2.6,2.6,0,0,1-5.19,0,2.54,2.54,0,0,1,2.47-2.62h.15a2.5,2.5,0,0,1,2.58,2.39A1.85,1.85,0,0,1,634.92,327.26Zm-4.67,29.52v-23h4.2v23Z" transform="translate(-122.94 -98.47)"/>
  <path class="cls-2" d="M641.4,340a60,60,0,0,0-.2-6.23h3.72l.24,3.81h.09a8.5,8.5,0,0,1,7.63-4.33c3.19,0,8.14,1.9,8.14,9.8v13.77h-4.19V343.54c0-3.71-1.39-6.82-5.33-6.82a6.15,6.15,0,0,0-6,6.25v13.85h-4.2Z" transform="translate(-122.94 -98.47)"/>
  <path class="cls-2" d="M687.51,353.45c0,5.28-1.06,8.52-3.29,10.53a12.24,12.24,0,0,1-8.39,2.75,14.85,14.85,0,0,1-7.66-1.9l1-3.19a13,13,0,0,0,6.77,1.8c4.28,0,7.44-2.23,7.44-8.05v-2.56h-.09a8.25,8.25,0,0,1-7.34,3.86c-5.71,0-9.8-4.87-9.8-11.25,0-7.81,5.09-12.23,10.41-12.23a7.69,7.69,0,0,1,7.2,4h.09l.2-3.48h3.66c-.09,1.67-.18,3.53-.18,6.34Zm-4.15-10.63a6.19,6.19,0,0,0-6.1-6.37c-4,0-6.86,3.38-6.86,8.71,0,4.46,2.29,8.29,6.81,8.29a6.13,6.13,0,0,0,5.82-4.29,7.05,7.05,0,0,0,.33-2.23Z" transform="translate(-122.94 -98.47)"/>
</svg>