<svg id="Calque_2" data-name="Calque 2" 
  xmlns="http://www.w3.org/2000/svg" viewBox="0 0 633.53 413.48">
  <defs>
    <style>.cls-1{fill:#fff;stroke:#00abe9;stroke-miterlimit:10;stroke-width:2.5px;}.cls-2{fill:#00abe9;}.cls-3{fill:#133b7b;}</style>
  </defs>
  <title>Logo carte NL 2018_3</title>
  <path class="cls-1" d="M708,99.51,266.39,114.67,193.51,51.72c-5.38-4.65-9.78-2.93-9.78,3.82v57.73a11.08,11.08,0,0,0,.87,4.21l-13.19.45c-26,.89-47.22,20.95-47.22,44.58V397.05c0,23.63,21.25,43.7,47.22,44.59L708,460.05c26,.89,47.22-17.71,47.22-41.34V140.86C755.23,117.23,734,98.62,708,99.51Z" transform="translate(-122.94 -47.85)"/>
  <path class="cls-2" d="M277.08,339.26h-.3a20,20,0,0,1-17.6-11.07l-40.93-82A20,20,0,1,1,254,228.3l24.53,49.15c22.32-35.42,61.85-91.24,106.31-122.63A20,20,0,1,1,408,187.5C348.41,229.55,295.23,327.74,294.7,328.73a20,20,0,0,1-17.62,10.53" transform="translate(-122.94 -47.85)"/>
  <path class="cls-3" d="M366.56,253.05a16.45,16.45,0,0,0-16.44,16.08v63.48a19.31,19.31,0,0,1-19.31,19.3H223.11a19.31,19.31,0,0,1-19.3-19.3V224.77a19.31,19.31,0,0,1,19.3-19.3h83.41a16.46,16.46,0,1,0,0-32.92H212.9a42,42,0,0,0-42,42V342.87a42,42,0,0,0,42,42H341a42,42,0,0,0,42-42V269.51a16.46,16.46,0,0,0-16.46-16.46" transform="translate(-122.94 -47.85)"/>
  <path class="cls-3" d="M437.74,214.41h8.37v23.48c0,10.58-5.06,14.27-13.23,14.27a21.79,21.79,0,0,1-6.11-.87l.94-6.77a13.93,13.93,0,0,0,4.3.65c3.52,0,5.73-1.59,5.73-7.44Z" transform="translate(-122.94 -47.85)"/>
  <path class="cls-3" d="M459.28,240.71c.28,3.46,3.71,5.12,7.62,5.12a24.09,24.09,0,0,0,7.44-1.11l1.1,5.69a26.65,26.65,0,0,1-9.76,1.69c-9.15,0-14.39-5.34-14.39-13.77,0-6.83,4.26-14.38,13.62-14.38,8.7,0,12,6.77,12,13.39a19.29,19.29,0,0,1-.28,3.31Zm9.87-5.73c0-2.06-.88-5.46-4.74-5.46-3.52,0-5,3.2-5.17,5.46Z" transform="translate(-122.94 -47.85)"/>
  <path class="cls-3" d="M524.75,237.34c-.16-4.46-.32-9.86-.32-15.26h-.17c-1.16,4.74-2.71,10-4.14,14.39L515.66,251h-6.55l-4-14.33c-1.22-4.46-2.48-9.7-3.36-14.55h-.11c-.22,5-.38,10.74-.67,15.38l-.65,14.11h-7.78l2.38-37.2h11.19l3.63,12.41c1.16,4.24,2.32,8.93,3.14,13.27H513c1-4.3,2.32-9.19,3.52-13.39l4-12.35h11l2,37.2h-8.21Z" transform="translate(-122.94 -47.85)"/>
  <path class="cls-3" d="M562.34,245a40,40,0,0,0,.39,6.56h-7.56l-.49-2.71h-.17a9.68,9.68,0,0,1-7.72,3.3,8.25,8.25,0,0,1-8.69-7.8c0-.15,0-.3,0-.45,0-7,6.28-10.42,15.82-10.32v-.32c0-1.49-.77-3.47-4.91-3.47a15.23,15.23,0,0,0-7.44,2l-1.49-5.4a22.3,22.3,0,0,1,10.42-2.37c8.93,0,11.9,5.28,11.9,11.62Zm-8.16-6.18c-4.46,0-7.82,1-7.82,4.24a3,3,0,0,0,2.72,3.21,2.81,2.81,0,0,0,.58,0,4.58,4.58,0,0,0,4.36-3.08,6.24,6.24,0,0,0,.16-1.49Z" transform="translate(-122.94 -47.85)"/>
  <path class="cls-3" d="M577.32,236h.11c.61-1.11,1.28-2.21,1.93-3.25l5.46-8.1h10.09l-9.66,10.91,11.07,16H585.91l-6.5-11.09-2.15,2.65v8.44H569V212.43h8.37Z" transform="translate(-122.94 -47.85)"/>
  <path class="cls-3" d="M604.49,240.71c.27,3.46,3.69,5.12,7.61,5.12a24.09,24.09,0,0,0,7.44-1.11l1.1,5.69a26.44,26.44,0,0,1-9.76,1.69c-9.14,0-14.38-5.34-14.38-13.77,0-6.83,4.24-14.38,13.62-14.38,8.7,0,12,6.77,12,13.39a19.3,19.3,0,0,1-.29,3.31Zm9.87-5.73c0-2.06-.89-5.46-4.75-5.46-3.52,0-5,3.2-5.18,5.46Z" transform="translate(-122.94 -47.85)"/>
  <path class="cls-3" d="M627.14,212.43h8.38v39.14h-8.38Z" transform="translate(-122.94 -47.85)"/>
  <path class="cls-3" d="M664.77,245a42.4,42.4,0,0,0,.39,6.56h-7.55l-.49-2.71h-.18a9.63,9.63,0,0,1-7.7,3.3,8.23,8.23,0,0,1-8.69-7.77c0-.16,0-.32,0-.48,0-7,6.28-10.42,15.82-10.32v-.32c0-1.49-.77-3.47-4.91-3.47a15.2,15.2,0,0,0-7.44,2l-1.49-5.4a22.3,22.3,0,0,1,10.42-2.37c8.93,0,11.9,5.28,11.9,11.62Zm-8.15-6.18c-4.47,0-7.83,1-7.83,4.24a3,3,0,0,0,2.72,3.21,2.8,2.8,0,0,0,.58,0,4.56,4.56,0,0,0,4.36-3.08,6.25,6.25,0,0,0,.17-1.49Z" transform="translate(-122.94 -47.85)"/>
  <path class="cls-3" d="M693.88,245a41.12,41.12,0,0,0,.38,6.56H686.7l-.49-2.71h-.16a9.68,9.68,0,0,1-7.72,3.3,8.26,8.26,0,0,1-8.7-7.8c0-.15,0-.3,0-.45,0-7,6.28-10.42,15.82-10.32v-.32c0-1.49-.77-3.47-4.91-3.47a15.2,15.2,0,0,0-7.44,2l-1.49-5.4A22.3,22.3,0,0,1,682,224.07c8.93,0,11.9,5.28,11.9,11.62Zm-8.16-6.18c-4.46,0-7.82,1-7.82,4.24a3,3,0,0,0,2.72,3.21,2.81,2.81,0,0,0,.58,0,4.53,4.53,0,0,0,4.34-3.08,5.29,5.29,0,0,0,.18-1.49Z" transform="translate(-122.94 -47.85)"/>
  <path class="cls-3" d="M700.48,233.49c0-4-.1-6.56-.22-8.93h7.22l.28,5h.16A7.92,7.92,0,0,1,715.2,224a8.68,8.68,0,0,1,1.76.11V232a7.9,7.9,0,0,0-2.27-.28A5.39,5.39,0,0,0,709,236a10.73,10.73,0,0,0-.16,1.87v13.68h-8.32Z" transform="translate(-122.94 -47.85)"/>
  <path class="cls-2" d="M502.24,275.78h4.15v21.47c0,8.53-4.2,11.14-9.72,11.14a13.83,13.83,0,0,1-4.46-.75l.63-3.4a9.51,9.51,0,0,0,3.46.63c3.72,0,5.95-1.67,5.95-8Z" transform="translate(-122.94 -47.85)"/>
  <path class="cls-2" d="M515.48,297.12c.09,5.67,3.72,8,7.9,8a15.07,15.07,0,0,0,6.39-1.19l.71,3a18.65,18.65,0,0,1-7.66,1.48c-7.1,0-11.34-4.71-11.34-11.66s4.09-12.44,10.82-12.44c7.51,0,9.52,6.62,9.52,10.86a12.71,12.71,0,0,1-.15,2Zm12.29-3c0-2.68-1.1-6.82-5.81-6.82-4.25,0-6.09,3.9-6.43,6.82Z" transform="translate(-122.94 -47.85)"/>
  <path class="cls-2" d="M547.1,274.07h4.15v14.48h.09a8.59,8.59,0,0,1,7.86-4.25c5.71,0,9.78,4.77,9.72,11.77,0,8.25-5.2,12.34-10.33,12.34a8.23,8.23,0,0,1-7.72-4.33h-.14l-.19,3.81h-3.63c.1-1.58.19-3.91.19-5.95Zm4.15,24.58a7.52,7.52,0,0,0,.2,1.49,6.46,6.46,0,0,0,6.28,4.91c4.39,0,7-3.57,7-8.93,0-4.61-2.38-8.57-6.85-8.57a6.67,6.67,0,0,0-6.39,5.15,8.2,8.2,0,0,0-.24,1.71Z" transform="translate(-122.94 -47.85)"/>
  <path class="cls-2" d="M576.53,297.12c.11,5.67,3.72,8,7.92,8a15.15,15.15,0,0,0,6.38-1.19l.72,3a18.74,18.74,0,0,1-7.68,1.48c-7.1,0-11.34-4.71-11.34-11.66s4.11-12.44,10.82-12.44c7.53,0,9.52,6.62,9.52,10.86a16,16,0,0,1-.13,2Zm12.3-3c0-2.68-1.09-6.82-5.81-6.82-4.24,0-6.1,3.9-6.43,6.82Z" transform="translate(-122.94 -47.85)"/>
  <path class="cls-2" d="M597.5,303.59a10.8,10.8,0,0,0,5.52,1.68c3.05,0,4.46-1.49,4.46-3.44s-1.19-3.09-4.28-4.24c-4.15-1.49-6.1-3.76-6.1-6.52,0-3.72,3-6.77,8-6.77a11.63,11.63,0,0,1,5.65,1.49l-1,3A9.13,9.13,0,0,0,605,287.5c-2.47,0-3.85,1.49-3.85,3.16s1.38,2.75,4.38,3.9c4,1.48,6,3.52,6,6.95,0,4.06-3.14,7-8.61,7a13.14,13.14,0,0,1-6.49-1.62Z" transform="translate(-122.94 -47.85)"/>
  <path class="cls-2" d="M622,279.3v5.53h5.95V288H622v12.43c0,2.86.8,4.46,3.14,4.46a7.5,7.5,0,0,0,2.45-.22l.2,3.14a9.87,9.87,0,0,1-3.72.62,5.83,5.83,0,0,1-4.47-1.81c-1.19-1.24-1.61-3.29-1.61-5.95V288h-3.58v-3.19H618v-4.25Z" transform="translate(-122.94 -47.85)"/>
  <path class="cls-2" d="M634.74,297.12c.09,5.67,3.71,8,7.91,8a15.06,15.06,0,0,0,6.38-1.19l.71,3a18.65,18.65,0,0,1-7.66,1.48c-7.1,0-11.34-4.71-11.34-11.66s4.09-12.44,10.8-12.44c7.53,0,9.54,6.62,9.54,10.86a16,16,0,0,1-.15,2Zm12.29-3c0-2.68-1.1-6.82-5.81-6.82-4.24,0-6.1,3.9-6.43,6.82Z" transform="translate(-122.94 -47.85)"/>
  <path class="cls-2" d="M465.62,358.11,455.2,326h4.47l4.95,15.88c1.37,4.34,2.58,8.24,3.43,12h.1c.89-3.71,2.23-7.77,3.66-11.91l5.48-16h4.46l-11.49,32.1Z" transform="translate(-122.94 -47.85)"/>
  <path class="cls-2" d="M485.77,347.35c.09,5.67,3.7,8,7.9,8a15.5,15.5,0,0,0,6.38-1.19l.72,3a18.54,18.54,0,0,1-7.67,1.49c-7.09,0-11.34-4.7-11.34-11.67s4.1-12.42,10.82-12.42c7.52,0,9.53,6.62,9.53,10.86a18.28,18.28,0,0,1-.15,2Zm12.29-3c0-2.66-1.1-6.81-5.82-6.81-4.24,0-6.1,3.91-6.43,6.81Z" transform="translate(-122.94 -47.85)"/>
  <path class="cls-2" d="M507.3,342.25c0-2.71,0-5.05-.19-7.19h3.66l.14,4.46h.2a6.89,6.89,0,0,1,6.38-5,4.77,4.77,0,0,1,1.19.13v4a7.46,7.46,0,0,0-1.49-.15c-3,0-5.06,2.25-5.62,5.39a10.56,10.56,0,0,0-.19,1.95v12.29h-4.14Z" transform="translate(-122.94 -47.85)"/>
  <path class="cls-2" d="M520.68,355.68l10.41-13.57c1-1.23,1.95-2.33,3-3.57v-.1H521.63v-3.38H539.2v2.62l-10.3,13.39c-.95,1.29-1.9,2.44-3,3.63v.09h13.48v3.33H520.68Z" transform="translate(-122.94 -47.85)"/>
  <path class="cls-2" d="M545.73,347.35c.11,5.67,3.72,8,7.92,8a15.5,15.5,0,0,0,6.38-1.19l.72,3a18.62,18.62,0,0,1-7.68,1.49c-7.1,0-11.34-4.7-11.34-11.67s4.11-12.42,10.82-12.42c7.53,0,9.52,6.62,9.52,10.86a18.24,18.24,0,0,1-.13,2Zm12.29-3c0-2.66-1.08-6.81-5.8-6.81-4.24,0-6.1,3.91-6.43,6.81Z" transform="translate(-122.94 -47.85)"/>
  <path class="cls-2" d="M571.36,345.64h.09c.56-.82,1.38-1.82,2-2.62l6.75-8h5l-8.93,9.48,10.15,13.57h-5.08l-7.94-11-2.14,2.38v8.66H567.2V324.3h4.16Z" transform="translate(-122.94 -47.85)"/>
  <path class="cls-2" d="M591.86,347.35c.09,5.67,3.72,8,7.9,8a15.55,15.55,0,0,0,6.39-1.19l.71,3a18.49,18.49,0,0,1-7.66,1.49c-7.1,0-11.34-4.7-11.34-11.67s4.09-12.42,10.82-12.42c7.52,0,9.52,6.62,9.52,10.86a12.81,12.81,0,0,1-.15,2Zm12.29-3c0-2.66-1.1-6.81-5.82-6.81-4.22,0-6.08,3.91-6.42,6.81Z" transform="translate(-122.94 -47.85)"/>
  <path class="cls-2" d="M613.41,342.25c0-2.71,0-5.05-.2-7.19h3.66l.15,4.46h.14a6.89,6.89,0,0,1,6.38-5,4.77,4.77,0,0,1,1.19.13v4a7.46,7.46,0,0,0-1.49-.15c-3,0-5.06,2.25-5.62,5.39a12.64,12.64,0,0,0-.2,1.95v12.29h-4.13Z" transform="translate(-122.94 -47.85)"/>
  <path class="cls-2" d="M633.84,328.59a2.61,2.61,0,0,1-5.2,0,2.55,2.55,0,0,1,2.47-2.62h.15a2.49,2.49,0,0,1,2.58,2.39Zm-4.68,29.52V335.06h4.2v23.05Z" transform="translate(-122.94 -47.85)"/>
  <path class="cls-2" d="M640.31,341.29c0-2.38,0-4.33-.19-6.23h3.72l.23,3.81h.09a8.52,8.52,0,0,1,7.64-4.33c3.18,0,8.14,1.9,8.14,9.8v13.77h-4.2V344.87c0-3.71-1.38-6.82-5.33-6.82a6.15,6.15,0,0,0-5.95,6.25v13.85h-4.2Z" transform="translate(-122.94 -47.85)"/>
  <path class="cls-2" d="M686.42,354.78c0,5.28-1,8.52-3.29,10.53a12.24,12.24,0,0,1-8.39,2.75,14.85,14.85,0,0,1-7.66-1.9l1-3.19a13,13,0,0,0,6.77,1.8c4.29,0,7.44-2.23,7.44-8v-2.55h-.09A8.24,8.24,0,0,1,674.9,358c-5.71,0-9.8-4.87-9.8-11.25,0-7.81,5.09-12.23,10.41-12.23a7.72,7.72,0,0,1,7.21,4h.09l.19-3.48h3.66c-.09,1.67-.18,3.53-.18,6.34Zm-4.15-10.63a6.19,6.19,0,0,0-6.1-6.37c-4,0-6.86,3.38-6.86,8.71,0,4.46,2.29,8.29,6.81,8.29a6.12,6.12,0,0,0,5.82-4.29,7.05,7.05,0,0,0,.33-2.23Z" transform="translate(-122.94 -47.85)"/>
</svg>