<svg id="Calque_2" data-name="Calque 2" xmlns="http://www.w3.org/2000/svg" viewBox="0 0 633.53 413.48"><defs><style>.cls-1{fill:#fff;stroke:#00abe9;stroke-miterlimit:10;stroke-width:2.5px;}.cls-2{fill:#00abe9;}.cls-3{fill:#133b7b;}</style></defs><title>Logo carte FR 2018_3</title><path class="cls-1" d="M708,99.51,266.39,114.67,193.51,51.72c-5.38-4.65-9.78-2.93-9.78,3.82v57.73a11.08,11.08,0,0,0,.87,4.21l-13.19.45c-26,.89-47.22,20.95-47.22,44.58V397.05c0,23.63,21.25,43.7,47.22,44.59L708,460.05c26,.89,47.22-17.71,47.22-41.34V140.86C755.23,117.23,734,98.62,708,99.51Z" transform="translate(-122.94 -47.85)"/><path class="cls-2" d="M277.08,339.26h-.3a20,20,0,0,1-17.6-11.07l-40.93-82A20,20,0,1,1,254,228.3l24.53,49.15c22.32-35.42,61.85-91.24,106.31-122.63A20,20,0,1,1,408,187.5C348.41,229.55,295.23,327.74,294.7,328.73a20,20,0,0,1-17.62,10.53" transform="translate(-122.94 -47.85)"/><path class="cls-3" d="M366.56,253.05a16.45,16.45,0,0,0-16.44,16.08v63.48a19.31,19.31,0,0,1-19.31,19.3H223.11a19.31,19.31,0,0,1-19.3-19.3V224.77a19.31,19.31,0,0,1,19.3-19.3h83.41a16.46,16.46,0,1,0,0-32.92H212.9a42,42,0,0,0-42,42V342.87a42,42,0,0,0,42,42H341a42,42,0,0,0,42-42V269.51a16.46,16.46,0,0,0-16.46-16.46" transform="translate(-122.94 -47.85)"/><path class="cls-3" d="M424,252.51l-10.55-32.89h8.15l4,13.9c1.13,3.92,2.15,7.67,2.93,11.77h.14c.83-3.95,1.86-7.85,3-11.62l4.14-14h7.9l-11,32.89Z" transform="translate(-122.94 -47.85)"/><path class="cls-3" d="M468.55,240.31c0,8.74-6.21,12.74-12.59,12.74-7,0-12.42-4.59-12.42-12.3s5.09-12.64,12.75-12.64A11.61,11.61,0,0,1,468.55,239Q468.58,239.66,468.55,240.31Zm-17.28.24c0,4.14,1.71,7.18,4.88,7.18,2.88,0,4.73-2.87,4.73-7.18,0-3.55-1.38-7.17-4.73-7.17S451.27,237,451.27,240.55Z" transform="translate(-122.94 -47.85)"/><path class="cls-3" d="M481.43,222.16v6.48h5.33v5.52h-5.33v8.63c0,2.88.69,4.21,2.94,4.21a10,10,0,0,0,2.19-.2v5.62a14.68,14.68,0,0,1-4.84.67,7.76,7.76,0,0,1-5.51-2.09c-1.38-1.38-2.06-3.71-2.06-7.08v-9.76H471v-5.52h3.17v-4.48Z" transform="translate(-122.94 -47.85)"/><path class="cls-3" d="M491.06,236.5c0-3.5-.1-5.81-.19-7.86h6.41l.25,4.4h.19a7,7,0,0,1,6.44-4.93,8.34,8.34,0,0,1,1.58.1v7a8.08,8.08,0,0,0-2-.23,4.76,4.76,0,0,0-5.07,3.75,8.3,8.3,0,0,0-.14,1.65v12.11h-7.42Z" transform="translate(-122.94 -47.85)"/><path class="cls-3" d="M514.94,242.94c.23,3.08,3.26,4.55,6.73,4.55a20.77,20.77,0,0,0,6.59-1l1,5a23.39,23.39,0,0,1-8.64,1.52c-8.1,0-12.74-4.73-12.74-12.21,0-6.05,3.76-12.73,12.06-12.73,7.72,0,10.64,6,10.64,11.91a16.77,16.77,0,0,1-.25,2.92Zm8.73-5.07c0-1.81-.79-4.83-4.14-4.83-3.13,0-4.4,2.83-4.59,4.83Z" transform="translate(-122.94 -47.85)"/><path class="cls-3" d="M569.27,251.59a21,21,0,0,1-8.45,1.46c-11.37,0-17.24-7.13-17.24-16.55,0-11.23,8-17.48,17.93-17.48a19.2,19.2,0,0,1,8.1,1.47l-1.52,5.9a15.92,15.92,0,0,0-6.25-1.21c-5.9,0-10.49,3.55-10.49,10.88,0,6.59,3.92,10.74,10.55,10.74a18.65,18.65,0,0,0,6.19-1.07Z" transform="translate(-122.94 -47.85)"/><path class="cls-3" d="M596.59,240.31c0,8.74-6.19,12.74-12.59,12.74-7,0-12.35-4.59-12.35-12.3s5.08-12.64,12.75-12.64a11.61,11.61,0,0,1,12.19,11C596.61,239.49,596.61,239.9,596.59,240.31Zm-17.28.24c0,4.14,1.71,7.18,4.88,7.18,2.88,0,4.74-2.87,4.74-7.18,0-3.55-1.38-7.17-4.74-7.17s-4.93,3.66-4.93,7.17Z" transform="translate(-122.94 -47.85)"/><path class="cls-3" d="M623.65,244.86c0,3.12.1,5.65.19,7.65H617.4l-.34-3.36h-.15a8.53,8.53,0,0,1-7.47,3.9c-4.84,0-8.4-3-8.4-10.4v-14h7.48v12.84c0,3.47,1.12,5.52,3.71,5.52a4,4,0,0,0,3.71-2.6,4.17,4.17,0,0,0,.23-1.61V228.58h7.48Z" transform="translate(-122.94 -47.85)"/><path class="cls-3" d="M629.61,236.5c0-3.5-.1-5.81-.19-7.86h6.38l.25,4.4h.19a7,7,0,0,1,6.44-4.93,7.36,7.36,0,0,1,1.56.1v7a7.87,7.87,0,0,0-2-.23,4.76,4.76,0,0,0-5.07,3.75,8.3,8.3,0,0,0-.14,1.65v12.11h-7.42Z" transform="translate(-122.94 -47.85)"/><path class="cls-3" d="M657.48,222.16v6.48h5.31v5.52h-5.31v8.63c0,2.88.68,4.21,2.93,4.21a10.09,10.09,0,0,0,2.19-.2v5.62a14.68,14.68,0,0,1-4.84.67,7.78,7.78,0,0,1-5.52-2.09c-1.38-1.38-2-3.71-2-7.08v-9.76H647v-5.52h3.18v-4.48Z" transform="translate(-122.94 -47.85)"/><path class="cls-3" d="M674.77,222a3.74,3.74,0,0,1-3.76,3.72h-.26a3.74,3.74,0,1,1-.45-7.46h.45a3.72,3.72,0,0,1,4,3.42C674.76,221.78,674.77,221.89,674.77,222Zm-7.67,30.51V228.64h7.42v23.87Z" transform="translate(-122.94 -47.85)"/><path class="cls-3" d="M686.24,242.94c.24,3.08,3.27,4.55,6.73,4.55a20.73,20.73,0,0,0,6.59-1l1,5a23.39,23.39,0,0,1-8.64,1.52c-8.1,0-12.73-4.73-12.73-12.21,0-6.05,3.75-12.73,12.05-12.73,7.71,0,10.63,6,10.63,11.91a16.83,16.83,0,0,1-.23,2.92Zm8.73-5.07c0-1.81-.77-4.83-4.14-4.83-3.13,0-4.4,2.83-4.59,4.83Z" transform="translate(-122.94 -47.85)"/><path class="cls-3" d="M706.25,236.5c0-3.5-.11-5.81-.2-7.86h6.4l.25,4.4h.19a7,7,0,0,1,6.44-4.93,8.18,8.18,0,0,1,1.56.1v7a8,8,0,0,0-2-.23,4.77,4.77,0,0,0-5.08,3.75,9.12,9.12,0,0,0-.15,1.65v12.11h-7.41Z" transform="translate(-122.94 -47.85)"/><path class="cls-2" d="M436.91,308.94l-9.72-29.82h4.13L436,293.81c1.29,4,2.39,7.65,3.19,11.14h.1a114.42,114.42,0,0,1,3.4-11l5-14.73h4.13L441.16,309Z" transform="translate(-122.94 -47.85)"/><path class="cls-2" d="M472.84,298.06c0,7.91-5.52,11.38-10.66,11.38-5.79,0-10.26-4.27-10.26-11,0-7.17,4.69-11.38,10.62-11.38C468.69,287,472.84,291.51,472.84,298.06Zm-17,.22c0,4.69,2.76,8.27,6.51,8.27s6.51-3.5,6.51-8.27c0-3.64-1.82-8.28-6.43-8.28s-6.54,4.21-6.54,8.28Z" transform="translate(-122.94 -47.85)"/><path class="cls-2" d="M482.44,282.39v5.13H488v3h-5.52V302c0,2.65.76,4.14,2.92,4.14a7.55,7.55,0,0,0,2.27-.26l.16,2.92a9.41,9.41,0,0,1-3.45.58,5.48,5.48,0,0,1-4.2-1.68c-1.11-1.16-1.51-3.06-1.51-5.52V290.54h-3.31v-3h3.31v-3.93Z" transform="translate(-122.94 -47.85)"/><path class="cls-2" d="M492.4,294.21c0-2.53,0-4.69-.18-6.69h3.41l.13,4.21h.14a6.43,6.43,0,0,1,5.93-4.69,4.19,4.19,0,0,1,1.12.13v3.67a6.39,6.39,0,0,0-1.38-.13c-2.76,0-4.69,2.08-5.21,5a9.18,9.18,0,0,0-.18,1.81v11.42h-3.85Z" transform="translate(-122.94 -47.85)"/><path class="cls-2" d="M508.59,298.94c.08,5.27,3.45,7.43,7.34,7.43a14,14,0,0,0,5.93-1.1l.66,2.76a17.19,17.19,0,0,1-7.12,1.38c-6.59,0-10.53-4.39-10.53-10.86s3.8-11.54,10-11.54c7,0,8.84,6.15,8.84,10.1a15.54,15.54,0,0,1-.12,1.8ZM520,296.18c0-2.48-1-6.33-5.41-6.33-3.93,0-5.66,3.63-6,6.33Z" transform="translate(-122.94 -47.85)"/><path class="cls-2" d="M538,293.34a58,58,0,0,0-.18-5.81h3.41l.18,3.46h.12a7.37,7.37,0,0,1,6.73-3.94,6.34,6.34,0,0,1,6.07,4.29h.08a9,9,0,0,1,2.39-2.76,7.27,7.27,0,0,1,4.73-1.5c2.84,0,7,1.86,7,9.29V309h-3.81V296.86c0-4.14-1.5-6.6-4.65-6.6a5,5,0,0,0-4.6,3.55,6.11,6.11,0,0,0-.31,1.94V309h-3.8V296.1c0-3.41-1.51-5.89-4.47-5.89a5.76,5.76,0,0,0-5.13,5.79v12.93H538Z" transform="translate(-122.94 -47.85)"/><path class="cls-2" d="M577,298.94c.08,5.27,3.45,7.43,7.35,7.43a14,14,0,0,0,5.92-1.1L591,308a17.27,17.27,0,0,1-7.13,1.38c-6.59,0-10.53-4.39-10.53-10.86S577.11,287,583.36,287c7,0,8.84,6.15,8.84,10.1a15.54,15.54,0,0,1-.12,1.8Zm11.42-2.76c0-2.48-1-6.33-5.41-6.33-3.93,0-5.65,3.63-6,6.33Z" transform="translate(-122.94 -47.85)"/><path class="cls-2" d="M601.36,281.51a2.29,2.29,0,0,1-2.18,2.39h-.29a2.31,2.31,0,0,1-2.36-2.27v-.11a2.39,2.39,0,0,1,2.3-2.45H599a2.3,2.3,0,0,1,2.39,2.22A.88.88,0,0,1,601.36,281.51ZM597,308.94V287.52h3.89v21.42Z" transform="translate(-122.94 -47.85)"/><path class="cls-2" d="M607.37,277.52h3.91v31.42h-3.91Z" transform="translate(-122.94 -47.85)"/><path class="cls-2" d="M617.82,277.52h3.9v31.42h-3.9Z" transform="translate(-122.94 -47.85)"/><path class="cls-2" d="M630.44,298.94c.08,5.27,3.44,7.43,7.33,7.43a14,14,0,0,0,5.93-1.1l.67,2.76a17.25,17.25,0,0,1-7.12,1.38c-6.59,0-10.54-4.39-10.54-10.86s3.81-11.54,10-11.54c7,0,8.86,6.15,8.86,10.1a12.13,12.13,0,0,1-.14,1.8Zm11.4-2.76c0-2.48-1-6.33-5.39-6.33-4,0-5.67,3.63-6,6.33Z" transform="translate(-122.94 -47.85)"/><path class="cls-2" d="M668.31,303.1a58,58,0,0,0,.18,5.84H665l-.22-3.49h-.09a8.08,8.08,0,0,1-7.08,4c-3.36,0-7.38-1.87-7.38-9.4V287.52h3.89v11.86c0,4.14,1.24,6.81,4.78,6.81a5.45,5.45,0,0,0,5.48-5.53V287.52h3.9Z" transform="translate(-122.94 -47.85)"/><path class="cls-2" d="M674.81,294.21c0-2.53,0-4.69-.18-6.69H678l.14,4.21h.17a6.42,6.42,0,0,1,5.93-4.69,4.24,4.24,0,0,1,1.12.13v3.67a6.45,6.45,0,0,0-1.38-.13c-2.76,0-4.69,2.08-5.22,5a11,11,0,0,0-.18,1.81v11.42h-3.84Z" transform="translate(-122.94 -47.85)"/><path class="cls-2" d="M691,298.94c.08,5.27,3.45,7.43,7.34,7.43a14.05,14.05,0,0,0,5.93-1.1l.67,2.76a17.27,17.27,0,0,1-7.13,1.38c-6.59,0-10.53-4.39-10.53-10.86S691.08,287,697.33,287c7,0,8.84,6.15,8.84,10.1q0,.9-.12,1.8Zm11.42-2.76c0-2.48-1-6.33-5.41-6.33-3.93,0-5.65,3.63-6,6.33Z" transform="translate(-122.94 -47.85)"/><path class="cls-2" d="M481.53,343.81l-3.09,9.38h-4l10.14-29.84h4.65l10.17,29.84h-4.14l-3.19-9.38Zm9.78-3-2.91-8.58c-.68-1.95-1.12-3.71-1.56-5.45h-.08c-.44,1.78-.93,3.59-1.51,5.41l-2.92,8.62Z" transform="translate(-122.94 -47.85)"/><path class="cls-2" d="M502.8,349.2a10.12,10.12,0,0,0,5.13,1.54c2.84,0,4.14-1.37,4.14-3.18s-1.11-2.87-4-3.93c-3.85-1.38-5.65-3.51-5.65-6.07,0-3.45,2.75-6.28,7.37-6.28a10.77,10.77,0,0,1,5.27,1.38l-1,2.76a8.4,8.4,0,0,0-4.39-1.24c-2.3,0-3.58,1.38-3.58,2.92s1.28,2.57,4.06,3.63c3.73,1.38,5.63,3.28,5.63,6.47,0,3.75-2.92,6.46-8,6.46a12.25,12.25,0,0,1-6-1.51Z" transform="translate(-122.94 -47.85)"/><path class="cls-2" d="M520.38,349.2a10.06,10.06,0,0,0,5.13,1.54c2.76,0,4.14-1.37,4.14-3.18s-1.1-2.87-4-3.93c-3.86-1.38-5.67-3.51-5.67-6.07,0-3.45,2.76-6.28,7.39-6.28a10.73,10.73,0,0,1,5.26,1.38l-1,2.76a8.36,8.36,0,0,0-4.38-1.24c-2.31,0-3.59,1.38-3.59,2.92s1.28,2.57,4.14,3.63c3.71,1.38,5.61,3.28,5.61,6.47,0,3.75-2.92,6.46-8,6.46a12.25,12.25,0,0,1-6-1.51Z" transform="translate(-122.94 -47.85)"/><path class="cls-2" d="M556.36,347.34c0,2.22,0,4.14.16,5.85h-3.45l-.22-3.51h-.08a8.06,8.06,0,0,1-7.09,4c-3.35,0-7.38-1.86-7.38-9.38V331.77h3.89v11.86c0,4.14,1.24,6.81,4.77,6.81a5.52,5.52,0,0,0,5.52-5.52V331.78h3.9Z" transform="translate(-122.94 -47.85)"/><path class="cls-2" d="M562.81,338.44c0-2.51,0-4.69-.18-6.67H566l.14,4.2h.16a6.44,6.44,0,0,1,5.93-4.69,4.67,4.67,0,0,1,1.11.13v3.68A5.39,5.39,0,0,0,572,335c-2.76,0-4.69,2.08-5.22,5a10.89,10.89,0,0,0-.18,1.81v11.42h-3.84Z" transform="translate(-122.94 -47.85)"/><path class="cls-2" d="M592.09,348.06a31.53,31.53,0,0,0,.36,5.13h-3.54l-.31-2.76h-.14a7.94,7.94,0,0,1-6.55,3.18,6.09,6.09,0,0,1-6.52-5.63,4.56,4.56,0,0,1,0-.52c0-5.17,4.59-8,12.86-8v-.44c0-1.78-.48-5-4.86-5a10.56,10.56,0,0,0-5.52,1.6l-.88-2.57a13.15,13.15,0,0,1,7-1.9c6.55,0,8.14,4.47,8.14,8.76Zm-3.78-5.81c-4.25-.08-9.07.67-9.07,4.83a3.45,3.45,0,0,0,3.15,3.72h.52a5.34,5.34,0,0,0,5.18-3.59,4,4,0,0,0,.22-1.24Z" transform="translate(-122.94 -47.85)"/><path class="cls-2" d="M598.38,337.56a57.53,57.53,0,0,0-.18-5.79h3.45l.22,3.54h.1a7.84,7.84,0,0,1,7.07-4c3,0,7.56,1.77,7.56,9.12v12.79h-3.89V340.84c0-3.46-1.28-6.33-5-6.33a5.71,5.71,0,0,0-5.52,5.79v12.89h-3.86Z" transform="translate(-122.94 -47.85)"/><path class="cls-2" d="M638.2,352.39a14.18,14.18,0,0,1-6.15,1.28c-6.47,0-10.66-4.43-10.66-11s4.51-11.36,11.5-11.36a13.13,13.13,0,0,1,5.39,1.1l-.88,3a9.05,9.05,0,0,0-4.51-1c-4.91,0-7.57,3.64-7.57,8.11,0,4.95,3.18,8,7.43,8a11,11,0,0,0,4.79-1.06Z" transform="translate(-122.94 -47.85)"/><path class="cls-2" d="M644.66,343.19c.08,5.27,3.44,7.43,7.33,7.43a14.31,14.31,0,0,0,5.93-1.1l.67,2.76a17.25,17.25,0,0,1-7.12,1.38c-6.59,0-10.54-4.38-10.54-10.85s3.81-11.54,10.06-11.54c7,0,8.84,6.15,8.84,10.08a15.75,15.75,0,0,1-.13,1.82Zm11.42-2.76c0-2.48-1-6.33-5.41-6.33-3.93,0-5.67,3.62-6,6.33Z" transform="translate(-122.94 -47.85)"/></svg>