<svg id="Calque_1" data-name="Calque 1" xmlns="http://www.w3.org/2000/svg" viewBox="0 0 634.31 412.85"><defs><style>.cls-1{fill:#fff;stroke:#00abe9;stroke-miterlimit:10;stroke-width:2.5px;}.cls-2{fill:#00abe9;}.cls-3{fill:#133b7b;}</style></defs><title>Logo carte FR 2018_2</title><path class="cls-1" d="M708.73,99.75,171.47,118.21c-26,.89-47.28,21-47.28,44.69V398c0,23.68,21.28,43.79,47.28,44.68l12.67.44a11.12,11.12,0,0,0-.34,2.65v57.87c0,6.76,4.41,8.49,9.8,3.82l71.2-61.57,443.93,15.25c26,.89,47.27-17.75,47.27-41.44V141.19C756,117.51,734.73,98.86,708.73,99.75Z" transform="translate(-122.94 -98.47)"/><path class="cls-2" d="M277.08,339.26h-.3a20,20,0,0,1-17.6-11.07l-40.93-82A20,20,0,1,1,254,228.3l24.53,49.15c22.32-35.42,61.85-91.24,106.31-122.63A20,20,0,1,1,408,187.5C348.41,229.55,295.23,327.74,294.7,328.73a20,20,0,0,1-17.62,10.53" transform="translate(-122.94 -98.47)"/><path class="cls-3" d="M366.56,253.05a16.45,16.45,0,0,0-16.44,16.08v63.48a19.31,19.31,0,0,1-19.31,19.3H223.11a19.31,19.31,0,0,1-19.3-19.3V224.77a19.31,19.31,0,0,1,19.3-19.3h83.41a16.46,16.46,0,1,0,0-32.92H212.9a42,42,0,0,0-42,42V342.87a42,42,0,0,0,42,42H341a42,42,0,0,0,42-42V269.51a16.46,16.46,0,0,0-16.46-16.46" transform="translate(-122.94 -98.47)"/><path class="cls-3" d="M424.06,253.77l-10.55-32.89h8.15l4,13.9c1.13,3.92,2.15,7.67,2.94,11.77h.14c.82-4,1.86-7.85,3-11.62l4.14-14.05h7.91l-11,32.89Z" transform="translate(-122.94 -98.47)"/><path class="cls-3" d="M468.62,241.57c0,8.74-6.2,12.74-12.59,12.74-7,0-12.41-4.59-12.41-12.3s5.09-12.63,12.74-12.63a11.59,11.59,0,0,1,12.26,10.9A9.26,9.26,0,0,1,468.62,241.57Zm-17.28.25c0,4.13,1.71,7.17,4.88,7.17,2.89,0,4.74-2.87,4.74-7.17,0-3.56-1.38-7.18-4.74-7.18S451.34,238.3,451.34,241.82Z" transform="translate(-122.94 -98.47)"/><path class="cls-3" d="M481.51,223.42v6.48h5.32v5.52h-5.32v8.63c0,2.88.69,4.21,2.93,4.21a9.54,9.54,0,0,0,2.2-.2v5.62a14.72,14.72,0,0,1-4.84.67,7.72,7.72,0,0,1-5.52-2.09c-1.38-1.38-2.06-3.71-2.06-7.08v-9.76h-3.17V229.9h3.17v-4.48Z" transform="translate(-122.94 -98.47)"/><path class="cls-3" d="M491.13,237.76c0-3.5-.09-5.81-.19-7.86h6.41l.25,4.4h.2a7,7,0,0,1,6.44-4.92,7.53,7.53,0,0,1,1.57.09v7a8.06,8.06,0,0,0-2-.23,4.77,4.77,0,0,0-5.08,3.75,9.19,9.19,0,0,0-.14,1.65v12.11h-7.42Z" transform="translate(-122.94 -98.47)"/><path class="cls-3" d="M515,244.2c.23,3.08,3.27,4.55,6.73,4.55a20.73,20.73,0,0,0,6.59-1l1,5a23.38,23.38,0,0,1-8.64,1.51c-8.09,0-12.74-4.73-12.74-12.2,0-6.06,3.76-12.73,12.07-12.73,7.71,0,10.63,6,10.63,11.9a16.77,16.77,0,0,1-.25,2.92Zm8.73-5.07c0-1.81-.79-4.83-4.14-4.83-3.13,0-4.4,2.83-4.59,4.83Z" transform="translate(-122.94 -98.47)"/><path class="cls-3" d="M569.34,252.85a21,21,0,0,1-8.44,1.46c-11.38,0-17.24-7.13-17.24-16.55,0-11.23,8-17.47,17.93-17.47a19.17,19.17,0,0,1,8.09,1.46l-1.51,5.9a16,16,0,0,0-6.25-1.21c-5.91,0-10.5,3.56-10.5,10.88,0,6.59,3.92,10.74,10.55,10.74a18.71,18.71,0,0,0,6.2-1.07Z" transform="translate(-122.94 -98.47)"/><path class="cls-3" d="M596.66,241.57c0,8.74-6.19,12.74-12.59,12.74-7,0-12.35-4.59-12.35-12.3s5.08-12.63,12.75-12.63a11.58,11.58,0,0,1,12.19,11C596.68,240.76,596.68,241.16,596.66,241.57Zm-17.28.25c0,4.13,1.71,7.17,4.88,7.17,2.88,0,4.75-2.87,4.75-7.17,0-3.56-1.38-7.18-4.75-7.18s-4.92,3.66-4.92,7.18Z" transform="translate(-122.94 -98.47)"/><path class="cls-3" d="M623.72,246.12c0,3.12.1,5.65.2,7.65h-6.45l-.34-3.36H617a8.5,8.5,0,0,1-7.46,3.9c-4.84,0-8.4-3-8.4-10.4v-14h7.47v12.84c0,3.48,1.12,5.52,3.71,5.52a4,4,0,0,0,4-4.21V229.84h7.47Z" transform="translate(-122.94 -98.47)"/><path class="cls-3" d="M629.68,237.76c0-3.5-.1-5.81-.19-7.86h6.38l.25,4.4h.2a7,7,0,0,1,6.44-4.92,7.43,7.43,0,0,1,1.56.09v7a8,8,0,0,0-2-.23,4.77,4.77,0,0,0-5.08,3.75,9.19,9.19,0,0,0-.14,1.65v12.11h-7.42Z" transform="translate(-122.94 -98.47)"/><path class="cls-3" d="M657.56,223.42v6.48h5.31v5.52h-5.31v8.63c0,2.88.67,4.21,2.92,4.21a9.45,9.45,0,0,0,2.19-.2v5.62a14.42,14.42,0,0,1-4.84.67,7.71,7.71,0,0,1-5.51-2.09c-1.38-1.38-2.06-3.71-2.06-7.08v-9.76h-3.17V229.9h3.17v-4.48Z" transform="translate(-122.94 -98.47)"/><path class="cls-3" d="M674.84,223.27a3.74,3.74,0,0,1-3.76,3.72h-.25a3.74,3.74,0,0,1-.46-7.47h.46a3.73,3.73,0,0,1,4,3.43C674.84,223.05,674.84,223.16,674.84,223.27Zm-7.67,30.5V229.9h7.42v23.87Z" transform="translate(-122.94 -98.47)"/><path class="cls-3" d="M686.31,244.2c.24,3.08,3.27,4.55,6.74,4.55a20.77,20.77,0,0,0,6.59-1l1,5a23.44,23.44,0,0,1-8.65,1.51c-8.1,0-12.73-4.73-12.73-12.2,0-6.06,3.75-12.73,12-12.73,7.71,0,10.64,6,10.64,11.9a17.79,17.79,0,0,1-.24,2.92Zm8.74-5.07c0-1.81-.78-4.83-4.14-4.83-3.13,0-4.4,2.83-4.6,4.83Z" transform="translate(-122.94 -98.47)"/><path class="cls-3" d="M706.33,237.76c0-3.5-.11-5.81-.21-7.86h6.4l.25,4.4H713a7,7,0,0,1,6.44-4.92,7.39,7.39,0,0,1,1.56.09v7a7.87,7.87,0,0,0-2-.23,4.76,4.76,0,0,0-5.07,3.75,8.39,8.39,0,0,0-.16,1.65v12.11h-7.4Z" transform="translate(-122.94 -98.47)"/><path class="cls-2" d="M437,310.2l-9.72-29.82h4.14l4.65,14.69c1.28,4,2.38,7.66,3.18,11.14h.1c.83-3.44,2.07-7.21,3.41-11l5-14.73h4.14l-10.68,29.82Z" transform="translate(-122.94 -98.47)"/><path class="cls-2" d="M472.91,299.32c0,7.92-5.51,11.38-10.66,11.38-5.79,0-10.26-4.26-10.26-11,0-7.17,4.69-11.38,10.62-11.38C468.76,288.3,472.91,292.77,472.91,299.32Zm-17,.22c0,4.69,2.76,8.27,6.51,8.27s6.51-3.5,6.51-8.27c0-3.64-1.82-8.28-6.43-8.28s-6.53,4.21-6.53,8.28Z" transform="translate(-122.94 -98.47)"/><path class="cls-2" d="M482.51,283.65v5.13H488v3h-5.52V303.3c0,2.65.76,4.14,2.93,4.14a7.21,7.21,0,0,0,2.26-.26l.16,2.92a9.19,9.19,0,0,1-3.44.58,5.51,5.51,0,0,1-4.21-1.68c-1.1-1.16-1.5-3.06-1.5-5.52V291.8H475.4v-3h3.31V284.9Z" transform="translate(-122.94 -98.47)"/><path class="cls-2" d="M492.47,295.47c0-2.52,0-4.69-.18-6.69h3.41l.14,4.21H496a6.42,6.42,0,0,1,5.93-4.69,3.8,3.8,0,0,1,1.11.14v3.66a6.33,6.33,0,0,0-1.38-.13c-2.75,0-4.69,2.08-5.21,5a11,11,0,0,0-.18,1.81V310.2H492.4Z" transform="translate(-122.94 -98.47)"/><path class="cls-2" d="M508.66,300.2c.09,5.27,3.45,7.44,7.34,7.44a14,14,0,0,0,5.93-1.11l.66,2.76a17.18,17.18,0,0,1-7.11,1.38c-6.59,0-10.54-4.39-10.54-10.86s3.81-11.54,10.06-11.54c7,0,8.84,6.15,8.84,10.1a15.56,15.56,0,0,1-.13,1.8Zm11.42-2.76c0-2.48-1-6.33-5.4-6.33-3.93,0-5.67,3.63-6,6.33Z" transform="translate(-122.94 -98.47)"/><path class="cls-2" d="M538,294.6a58,58,0,0,0-.18-5.81h3.41l.18,3.47h.12a7.4,7.4,0,0,1,6.73-3.95,6.33,6.33,0,0,1,6.07,4.29h.09a8.87,8.87,0,0,1,2.38-2.76,7.27,7.27,0,0,1,4.73-1.5c2.84,0,7,1.86,7,9.3v12.6h-3.81V298.12c0-4.14-1.5-6.59-4.64-6.59a5,5,0,0,0-4.61,3.54,6.1,6.1,0,0,0-.3,1.94v13.23h-3.81V297.36c0-3.41-1.5-5.89-4.47-5.89a5.32,5.32,0,0,0-4.83,3.89,5.6,5.6,0,0,0-.3,1.9v12.93H538Z" transform="translate(-122.94 -98.47)"/><path class="cls-2" d="M577.1,300.2c.09,5.27,3.45,7.44,7.36,7.44a14,14,0,0,0,5.91-1.11l.68,2.76a17.27,17.27,0,0,1-7.13,1.38c-6.6,0-10.54-4.39-10.54-10.86s3.81-11.54,10-11.54c7,0,8.85,6.15,8.85,10.1a15.56,15.56,0,0,1-.13,1.8Zm11.42-2.76c0-2.48-1-6.33-5.4-6.33-3.93,0-5.66,3.63-6,6.33Z" transform="translate(-122.94 -98.47)"/><path class="cls-2" d="M601.43,282.77a2.29,2.29,0,0,1-2.18,2.39H599a2.31,2.31,0,0,1-2.36-2.27v-.11a2.36,2.36,0,0,1,2.3-2.44h.14a2.3,2.3,0,0,1,2.39,2.21A1.77,1.77,0,0,1,601.43,282.77ZM597.1,310.2V288.78H601V310.2Z" transform="translate(-122.94 -98.47)"/><path class="cls-2" d="M607.45,278.78h3.9V310.2h-3.9Z" transform="translate(-122.94 -98.47)"/><path class="cls-2" d="M617.89,278.78h3.9V310.2h-3.9Z" transform="translate(-122.94 -98.47)"/><path class="cls-2" d="M630.51,300.2c.08,5.27,3.45,7.44,7.34,7.44a14.22,14.22,0,0,0,5.93-1.11l.66,2.76a17.22,17.22,0,0,1-7.12,1.38c-6.59,0-10.53-4.39-10.53-10.86s3.8-11.54,10-11.54c7,0,8.85,6.15,8.85,10.1a12,12,0,0,1-.14,1.8Zm11.41-2.76c0-2.48-1-6.33-5.4-6.33-3.94,0-5.67,3.63-6,6.33Z" transform="translate(-122.94 -98.47)"/><path class="cls-2" d="M668.38,304.37a57.86,57.86,0,0,0,.18,5.83H665.1l-.22-3.49h-.08a8.09,8.09,0,0,1-7.09,4c-3.35,0-7.38-1.86-7.38-9.4V288.78h3.89v11.86c0,4.14,1.24,6.82,4.78,6.82a5.65,5.65,0,0,0,5.14-3.53,5.72,5.72,0,0,0,.34-2V288.78h3.9Z" transform="translate(-122.94 -98.47)"/><path class="cls-2" d="M674.88,295.47c0-2.52,0-4.69-.18-6.69h3.41l.14,4.21h.16a6.44,6.44,0,0,1,5.93-4.69,3.83,3.83,0,0,1,1.12.14v3.66a6.39,6.39,0,0,0-1.38-.13c-2.76,0-4.69,2.08-5.21,5a9.18,9.18,0,0,0-.18,1.81V310.2h-3.85Z" transform="translate(-122.94 -98.47)"/><path class="cls-2" d="M691.07,300.2c.09,5.27,3.45,7.44,7.34,7.44a14,14,0,0,0,5.93-1.11l.68,2.76a17.3,17.3,0,0,1-7.13,1.38c-6.6,0-10.54-4.39-10.54-10.86s3.81-11.54,10-11.54c7,0,8.84,6.15,8.84,10.1a13.61,13.61,0,0,1-.12,1.8Zm11.42-2.76c0-2.48-1-6.33-5.4-6.33-3.93,0-5.66,3.63-6,6.33Z" transform="translate(-122.94 -98.47)"/><path class="cls-2" d="M481.6,345.07l-3.09,9.38h-4l10.13-29.84h4.65l10.17,29.84h-4.14l-3.19-9.38Zm9.78-3-2.91-8.58c-.67-2-1.12-3.71-1.56-5.45h-.08c-.44,1.78-.92,3.59-1.5,5.41l-2.93,8.62Z" transform="translate(-122.94 -98.47)"/><path class="cls-2" d="M502.87,350.46A10.14,10.14,0,0,0,508,352c2.84,0,4.14-1.38,4.14-3.19s-1.1-2.87-4-3.93c-3.84-1.38-5.65-3.5-5.65-6.07,0-3.45,2.76-6.28,7.38-6.28a10.82,10.82,0,0,1,5.27,1.38l-1,2.76a8.48,8.48,0,0,0-4.38-1.24c-2.31,0-3.59,1.38-3.59,2.93s1.28,2.56,4.07,3.62c3.72,1.38,5.63,3.29,5.63,6.47,0,3.75-2.93,6.46-8,6.46a12.25,12.25,0,0,1-6-1.51Z" transform="translate(-122.94 -98.47)"/><path class="cls-2" d="M520.46,350.46a10.14,10.14,0,0,0,5.13,1.55c2.76,0,4.14-1.38,4.14-3.19s-1.11-2.87-4-3.93c-3.86-1.38-5.67-3.5-5.67-6.07,0-3.45,2.76-6.28,7.4-6.28a10.72,10.72,0,0,1,5.25,1.38l-1,2.76a8.4,8.4,0,0,0-4.39-1.24c-2.3,0-3.59,1.38-3.59,2.93s1.29,2.56,4.14,3.62c3.71,1.38,5.62,3.29,5.62,6.47,0,3.75-2.93,6.46-8,6.46a12.25,12.25,0,0,1-6-1.51Z" transform="translate(-122.94 -98.47)"/><path class="cls-2" d="M556.43,348.6c0,2.22,0,4.14.16,5.85h-3.44l-.22-3.51h-.09a8,8,0,0,1-7.09,4c-3.35,0-7.38-1.86-7.38-9.38V333h3.89v11.86c0,4.14,1.24,6.81,4.78,6.81a5.51,5.51,0,0,0,5.51-5.51V333h3.91Z" transform="translate(-122.94 -98.47)"/><path class="cls-2" d="M562.88,339.7c0-2.51,0-4.69-.18-6.67h3.41l.14,4.2h.16a6.46,6.46,0,0,1,5.94-4.69,4.53,4.53,0,0,1,1.1.13v3.68a5.83,5.83,0,0,0-1.38-.14c-2.76,0-4.69,2.09-5.21,5a9.18,9.18,0,0,0-.18,1.81v11.42h-3.85Z" transform="translate(-122.94 -98.47)"/><path class="cls-2" d="M592.17,349.32a30.44,30.44,0,0,0,.35,5.13H589l-.3-2.76h-.14a8,8,0,0,1-6.55,3.19,6.12,6.12,0,0,1-6.53-5.64c0-.17,0-.35,0-.52,0-5.17,4.59-8,12.87-8v-.45c0-1.78-.49-5-4.87-5a10.67,10.67,0,0,0-5.52,1.6l-.88-2.57a13.2,13.2,0,0,1,7-1.9c6.55,0,8.14,4.47,8.14,8.76Zm-3.78-5.81c-4.25-.08-9.08.68-9.08,4.83a3.45,3.45,0,0,0,3.15,3.72H583a5.36,5.36,0,0,0,5.19-3.58,4.82,4.82,0,0,0,.22-1.25Z" transform="translate(-122.94 -98.47)"/><path class="cls-2" d="M598.45,338.82c0-2.21,0-4-.17-5.79h3.44l.22,3.54h.1a7.84,7.84,0,0,1,7.08-4c3,0,7.55,1.77,7.55,9.12v12.79h-3.88V342.1c0-3.46-1.29-6.33-5-6.33a5.69,5.69,0,0,0-5.51,5.8v12.88h-3.87Z" transform="translate(-122.94 -98.47)"/><path class="cls-2" d="M638.27,353.65a14.15,14.15,0,0,1-6.15,1.28c-6.47,0-10.66-4.43-10.66-11S626,332.53,633,332.53a13.18,13.18,0,0,1,5.4,1.1l-.89,3a9.16,9.16,0,0,0-4.51-1c-4.91,0-7.57,3.64-7.57,8.11,0,4.95,3.19,8,7.44,8a11,11,0,0,0,4.78-1.06Z" transform="translate(-122.94 -98.47)"/><path class="cls-2" d="M644.73,344.45c.08,5.27,3.45,7.43,7.34,7.43a14.21,14.21,0,0,0,5.93-1.1l.66,2.76a17.22,17.22,0,0,1-7.12,1.38c-6.59,0-10.53-4.38-10.53-10.84s3.8-11.55,10-11.55c7,0,8.84,6.15,8.84,10.08a15.74,15.74,0,0,1-.12,1.82Zm11.42-2.76c0-2.48-1-6.33-5.41-6.33-3.93,0-5.67,3.63-6,6.33Z" transform="translate(-122.94 -98.47)"/></svg>