<svg id="Calque_3" data-name="Calque 3" xmlns="http://www.w3.org/2000/svg" viewBox="0 0 710.52 362.61"><defs><style>.cls-1{fill:#fff;stroke:#00abe9;stroke-miterlimit:10;stroke-width:2.5px;}.cls-2{fill:#00abe9;}.cls-3{fill:#133b7b;}</style></defs><title>Logo carte FR 2018_1</title><path class="cls-1" d="M137.93,355.22v41.62c0,23.6,21.3,43.64,47.34,44.53l538.09,18.39c26,.89,47.34-17.69,47.34-41.29V141c0-23.6-21.3-42.18-47.34-41.29L280.51,114.85l-82,2.8-13.23.45c-26,.89-47.34,20.93-47.34,44.53V279.82H67.17c-4,0-6,4.32-3.2,6.88Z" transform="translate(-61.43 -98.43)"/><path class="cls-2" d="M291.78,339.22h-.3a20,20,0,0,1-17.6-11.07l-40.93-82a20,20,0,1,1,35.79-17.86l24.53,49.15c22.32-35.42,61.85-91.24,106.31-122.63a20,20,0,1,1,23.09,32.68c-59.56,42-112.74,140.24-113.27,141.23a20,20,0,0,1-17.62,10.53" transform="translate(-61.43 -98.43)"/><path class="cls-3" d="M381.26,253a16.45,16.45,0,0,0-16.44,16.08v63.48a19.32,19.32,0,0,1-19.31,19.31H237.81a19.31,19.31,0,0,1-19.3-19.31V224.73a19.31,19.31,0,0,1,19.3-19.3h83.41a16.46,16.46,0,1,0,0-32.92H227.6a42,42,0,0,0-42,42V342.83a42,42,0,0,0,42,42H355.74a42,42,0,0,0,42-42V269.47A16.46,16.46,0,0,0,381.26,253" transform="translate(-61.43 -98.43)"/><path class="cls-3" d="M439.17,252.25l-10.55-32.9h8.15l4,13.91c1.13,3.91,2.16,7.66,2.94,11.76h.14c.83-3.94,1.86-7.85,3-11.61L451,219.35h7.9l-11,32.9Z" transform="translate(-61.43 -98.43)"/><path class="cls-3" d="M483.74,240c0,8.75-6.21,12.75-12.6,12.75-7,0-12.41-4.6-12.41-12.31s5.09-12.63,12.75-12.63a11.59,11.59,0,0,1,12.25,10.9A11.1,11.1,0,0,1,483.74,240Zm-17.28.25c0,4.14,1.71,7.17,4.88,7.17,2.88,0,4.73-2.87,4.73-7.17,0-3.56-1.38-7.17-4.73-7.17S466.46,236.77,466.46,240.29Z" transform="translate(-61.43 -98.43)"/><path class="cls-3" d="M496.62,221.89v6.48h5.32v5.52h-5.32v8.63c0,2.89.69,4.21,2.94,4.21a10.08,10.08,0,0,0,2.19-.19v5.61a14.43,14.43,0,0,1-4.84.68,7.79,7.79,0,0,1-5.52-2.1c-1.38-1.38-2.05-3.71-2.05-7.07v-9.77h-3.17v-5.52h3.17v-4.48Z" transform="translate(-61.43 -98.43)"/><path class="cls-3" d="M506.25,236.24c0-3.51-.1-5.81-.2-7.87h6.42l.25,4.4h.19a7,7,0,0,1,6.44-4.92,7.49,7.49,0,0,1,1.57.1v7a7.58,7.58,0,0,0-2-.24,4.78,4.78,0,0,0-5.08,3.75,9.22,9.22,0,0,0-.13,1.66v12.11h-7.42Z" transform="translate(-61.43 -98.43)"/><path class="cls-3" d="M530.12,242.68c.24,3.07,3.27,4.55,6.73,4.55a21.42,21.42,0,0,0,6.6-1l1,5a23.31,23.31,0,0,1-8.63,1.52c-8.1,0-12.75-4.73-12.75-12.21,0-6.06,3.77-12.73,12.07-12.73,7.71,0,10.64,6,10.64,11.9a18,18,0,0,1-.25,2.93Zm8.73-5.08c0-1.81-.78-4.83-4.13-4.83-3.14,0-4.4,2.83-4.6,4.83Z" transform="translate(-61.43 -98.43)"/><path class="cls-3" d="M584.45,251.32a21.18,21.18,0,0,1-8.44,1.47c-11.38,0-17.24-7.13-17.24-16.55,0-11.23,8-17.48,17.93-17.48a19.4,19.4,0,0,1,8.1,1.46l-1.52,5.91a16,16,0,0,0-6.25-1.22c-5.9,0-10.49,3.56-10.49,10.88,0,6.6,3.91,10.75,10.55,10.75a18.66,18.66,0,0,0,6.19-1.08Z" transform="translate(-61.43 -98.43)"/><path class="cls-3" d="M611.78,240c0,8.75-6.2,12.75-12.6,12.75-7,0-12.34-4.6-12.34-12.31s5.07-12.63,12.74-12.63a11.61,11.61,0,0,1,12.2,11C611.8,239.23,611.8,239.64,611.78,240Zm-17.29.25c0,4.14,1.71,7.17,4.89,7.17,2.88,0,4.74-2.87,4.74-7.17,0-3.56-1.38-7.17-4.74-7.17s-4.93,3.65-4.93,7.17Z" transform="translate(-61.43 -98.43)"/><path class="cls-3" d="M638.84,244.59c0,3.12.09,5.66.19,7.66h-6.44l-.35-3.37h-.15a8.52,8.52,0,0,1-7.46,3.91c-4.84,0-8.4-3-8.4-10.4v-14h7.48v12.84c0,3.48,1.11,5.52,3.71,5.52a4,4,0,0,0,3.71-2.59,4.25,4.25,0,0,0,.23-1.62v-14.2h7.48Z" transform="translate(-61.43 -98.43)"/><path class="cls-3" d="M644.8,236.24c0-3.51-.1-5.81-.2-7.87H651l.25,4.4h.19a7,7,0,0,1,6.44-4.92,7.44,7.44,0,0,1,1.56.1v7a7.5,7.5,0,0,0-2-.24,4.78,4.78,0,0,0-5.08,3.75,9.22,9.22,0,0,0-.13,1.66v12.11H644.8Z" transform="translate(-61.43 -98.43)"/><path class="cls-3" d="M672.67,221.89v6.48H678v5.52h-5.31v8.63c0,2.89.68,4.21,2.92,4.21a10.12,10.12,0,0,0,2.2-.19v5.61a14.47,14.47,0,0,1-4.84.68,7.77,7.77,0,0,1-5.52-2.1c-1.38-1.38-2.06-3.71-2.06-7.07v-9.77H662.2v-5.52h3.17v-4.48Z" transform="translate(-61.43 -98.43)"/><path class="cls-3" d="M690,221.74a3.74,3.74,0,0,1-3.75,3.72h-.26a3.74,3.74,0,1,1-.46-7.46,3.53,3.53,0,0,1,.46,0,3.72,3.72,0,0,1,4,3.42C690,221.52,690,221.63,690,221.74Zm-7.67,30.51V228.37h7.42v23.88Z" transform="translate(-61.43 -98.43)"/><path class="cls-3" d="M701.43,242.68c.23,3.07,3.27,4.55,6.73,4.55a21.35,21.35,0,0,0,6.59-1l1,5a23.62,23.62,0,0,1-8.65,1.52c-8.09,0-12.73-4.73-12.73-12.21,0-6.06,3.75-12.73,12.06-12.73,7.71,0,10.63,6,10.63,11.9a18,18,0,0,1-.23,2.93Zm8.73-5.08c0-1.81-.77-4.83-4.14-4.83-3.13,0-4.4,2.83-4.59,4.83Z" transform="translate(-61.43 -98.43)"/><path class="cls-3" d="M721.44,236.24c0-3.51-.11-5.81-.21-7.87h6.4l.25,4.4h.2a7,7,0,0,1,6.44-4.92,7.44,7.44,0,0,1,1.56.1v7a7.55,7.55,0,0,0-2-.24,4.78,4.78,0,0,0-5.08,3.75,9.23,9.23,0,0,0-.15,1.66v12.11h-7.41Z" transform="translate(-61.43 -98.43)"/><path class="cls-2" d="M452.1,308.67l-9.73-29.82h4.14l4.65,14.69c1.28,4,2.39,7.66,3.19,11.15h.09c.83-3.45,2.07-7.22,3.41-11l5-14.73H467l-10.67,29.82Z" transform="translate(-61.43 -98.43)"/><path class="cls-2" d="M488,297.79c0,7.92-5.52,11.38-10.66,11.38-5.8,0-10.27-4.26-10.27-11,0-7.18,4.69-11.38,10.62-11.38C483.88,286.77,488,291.24,488,297.79ZM471,298c0,4.69,2.76,8.28,6.51,8.28s6.51-3.51,6.51-8.28c0-3.64-1.82-8.27-6.42-8.27s-6.54,4.2-6.54,8.27Z" transform="translate(-61.43 -98.43)"/><path class="cls-2" d="M497.63,282.12v5.13h5.51v3h-5.51v11.56c0,2.65.76,4.14,2.92,4.14a7.19,7.19,0,0,0,2.26-.27l.17,2.93a9.62,9.62,0,0,1-3.45.58,5.55,5.55,0,0,1-4.21-1.69c-1.1-1.15-1.5-3.06-1.5-5.51V290.27h-3.31v-3h3.31v-3.93Z" transform="translate(-61.43 -98.43)"/><path class="cls-2" d="M507.59,293.94c0-2.52,0-4.69-.18-6.69h3.4l.14,4.21h.14a6.44,6.44,0,0,1,5.93-4.69,3.87,3.87,0,0,1,1.12.14v3.67a6.46,6.46,0,0,0-1.38-.14c-2.76,0-4.69,2.08-5.22,5a10.87,10.87,0,0,0-.18,1.8v11.42h-3.84Z" transform="translate(-61.43 -98.43)"/><path class="cls-2" d="M523.78,298.67c.08,5.27,3.45,7.44,7.34,7.44a14.05,14.05,0,0,0,5.93-1.1l.66,2.75a16.91,16.91,0,0,1-7.12,1.38c-6.59,0-10.54-4.38-10.54-10.85s3.81-11.55,10.06-11.55c7,0,8.84,6.16,8.84,10.1,0,.6-.05,1.21-.12,1.81Zm11.42-2.75c0-2.49-1-6.33-5.41-6.33-3.93,0-5.67,3.62-6,6.33Z" transform="translate(-61.43 -98.43)"/><path class="cls-2" d="M553.16,293.07a57.84,57.84,0,0,0-.18-5.8h3.4l.18,3.46h.13a7.37,7.37,0,0,1,6.73-3.94,6.36,6.36,0,0,1,6.07,4.28h.08a8.89,8.89,0,0,1,2.39-2.75,7.26,7.26,0,0,1,4.73-1.51c2.84,0,7,1.87,7,9.3v12.61h-3.8V296.59c0-4.14-1.51-6.59-4.65-6.59a5.05,5.05,0,0,0-4.61,3.54,6.45,6.45,0,0,0-.3,1.95v13.23h-3.81V295.83c0-3.4-1.5-5.89-4.47-5.89a5.33,5.33,0,0,0-4.82,3.89,5.39,5.39,0,0,0-.31,1.91v12.92h-3.8Z" transform="translate(-61.43 -98.43)"/><path class="cls-2" d="M592.22,298.67c.08,5.27,3.45,7.44,7.35,7.44a14,14,0,0,0,5.92-1.1l.67,2.75a17,17,0,0,1-7.13,1.38c-6.59,0-10.54-4.38-10.54-10.85s3.81-11.55,10.06-11.55c7,0,8.84,6.16,8.84,10.1,0,.6,0,1.21-.12,1.81Zm11.42-2.75c0-2.49-1-6.33-5.41-6.33-3.93,0-5.65,3.62-6,6.33Z" transform="translate(-61.43 -98.43)"/><path class="cls-2" d="M616.55,281.24a2.3,2.3,0,0,1-2.19,2.39h-.28a2.32,2.32,0,0,1-2.36-2.28v-.11a2.37,2.37,0,0,1,2.3-2.44h.14a2.3,2.3,0,0,1,2.39,2.21Zm-4.33,27.43V287.25h3.89v21.42Z" transform="translate(-61.43 -98.43)"/><path class="cls-2" d="M622.56,277.25h3.9v31.42h-3.9Z" transform="translate(-61.43 -98.43)"/><path class="cls-2" d="M633,277.25h3.91v31.42H633Z" transform="translate(-61.43 -98.43)"/><path class="cls-2" d="M645.62,298.67c.09,5.27,3.45,7.44,7.34,7.44a14.18,14.18,0,0,0,5.93-1.1l.66,2.75a16.86,16.86,0,0,1-7.11,1.38c-6.6,0-10.54-4.38-10.54-10.85s3.81-11.55,10-11.55c7,0,8.85,6.16,8.85,10.1a12.15,12.15,0,0,1-.13,1.81ZM657,295.92c0-2.49-1-6.33-5.39-6.33-3.95,0-5.67,3.62-6,6.33Z" transform="translate(-61.43 -98.43)"/><path class="cls-2" d="M683.5,302.84a57.65,57.65,0,0,0,.18,5.83h-3.47l-.22-3.49h-.08a8.08,8.08,0,0,1-7.09,4c-3.35,0-7.38-1.86-7.38-9.39V287.25h3.89v11.87c0,4.13,1.24,6.81,4.79,6.81a5.42,5.42,0,0,0,5.47-5.53V287.25h3.91Z" transform="translate(-61.43 -98.43)"/><path class="cls-2" d="M690,293.94c0-2.52,0-4.69-.18-6.69h3.41l.14,4.21h.16a6.46,6.46,0,0,1,5.94-4.69,3.8,3.8,0,0,1,1.11.14v3.67a6.34,6.34,0,0,0-1.38-.14c-2.76,0-4.69,2.08-5.21,5a10.87,10.87,0,0,0-.18,1.8v11.42H690Z" transform="translate(-61.43 -98.43)"/><path class="cls-2" d="M706.19,298.67c.08,5.27,3.44,7.44,7.33,7.44a14.07,14.07,0,0,0,5.94-1.1l.67,2.75a17,17,0,0,1-7.13,1.38c-6.59,0-10.54-4.38-10.54-10.85s3.81-11.55,10.06-11.55c7,0,8.84,6.16,8.84,10.1a15.73,15.73,0,0,1-.13,1.81Zm11.42-2.75c0-2.49-1-6.33-5.41-6.33-3.93,0-5.65,3.62-6,6.33Z" transform="translate(-61.43 -98.43)"/><path class="cls-2" d="M496.72,343.54l-3.09,9.38h-4l10.14-29.83h4.65l10.16,29.83h-4.14l-3.18-9.38Zm9.78-3-2.91-8.58c-.68-1.94-1.12-3.71-1.56-5.45h-.09c-.44,1.78-.92,3.59-1.5,5.41l-2.92,8.62Z" transform="translate(-61.43 -98.43)"/><path class="cls-2" d="M518,348.94a10.22,10.22,0,0,0,5.13,1.54c2.84,0,4.13-1.38,4.13-3.19s-1.1-2.86-4-3.93c-3.85-1.38-5.66-3.5-5.66-6.07,0-3.44,2.76-6.27,7.38-6.27a10.69,10.69,0,0,1,5.27,1.38l-1,2.76a8.36,8.36,0,0,0-4.38-1.24c-2.3,0-3.59,1.37-3.59,2.92s1.29,2.56,4.07,3.63c3.73,1.38,5.63,3.28,5.63,6.47,0,3.75-2.92,6.45-8,6.45a12.28,12.28,0,0,1-6-1.5Z" transform="translate(-61.43 -98.43)"/><path class="cls-2" d="M535.57,348.94a10.12,10.12,0,0,0,5.13,1.54c2.76,0,4.14-1.38,4.14-3.19s-1.1-2.86-4-3.93c-3.86-1.38-5.67-3.5-5.67-6.07,0-3.44,2.76-6.27,7.39-6.27a10.68,10.68,0,0,1,5.26,1.38l-1,2.76a8.4,8.4,0,0,0-4.39-1.24c-2.3,0-3.58,1.37-3.58,2.92s1.28,2.56,4.14,3.63c3.71,1.38,5.61,3.28,5.61,6.47,0,3.75-2.92,6.45-8,6.45a12.28,12.28,0,0,1-6-1.5Z" transform="translate(-61.43 -98.43)"/><path class="cls-2" d="M571.54,347.07c0,2.22,0,4.14.17,5.85h-3.45l-.22-3.5H568a8.05,8.05,0,0,1-7.09,4c-3.36,0-7.38-1.86-7.38-9.37V331.5h3.89v11.86c0,4.14,1.24,6.82,4.77,6.82a5.52,5.52,0,0,0,5.52-5.52V331.52h3.9Z" transform="translate(-61.43 -98.43)"/><path class="cls-2" d="M578,338.18c0-2.51,0-4.69-.18-6.68h3.4l.14,4.21h.17a6.41,6.41,0,0,1,5.93-4.69,4.52,4.52,0,0,1,1.1.12v3.69a4.91,4.91,0,0,0-1.38-.14c-2.76,0-4.69,2.08-5.21,5a9.18,9.18,0,0,0-.18,1.81v11.42h-3.85Z" transform="translate(-61.43 -98.43)"/><path class="cls-2" d="M607.28,347.79a29.38,29.38,0,0,0,.36,5.13h-3.55l-.3-2.76h-.14a8,8,0,0,1-6.55,3.19,6.09,6.09,0,0,1-6.52-5.64c0-.17,0-.34,0-.51,0-5.17,4.6-8,12.87-8v-.44c0-1.78-.48-5-4.87-5a10.67,10.67,0,0,0-5.52,1.6l-.88-2.56a13.13,13.13,0,0,1,7-1.91c6.55,0,8.13,4.47,8.13,8.76ZM603.5,342c-4.25-.08-9.08.68-9.08,4.83a3.46,3.46,0,0,0,3.16,3.72,2.9,2.9,0,0,0,.51,0,5.37,5.37,0,0,0,5.19-3.59,4.37,4.37,0,0,0,.22-1.24Z" transform="translate(-61.43 -98.43)"/><path class="cls-2" d="M613.57,337.29a57.74,57.74,0,0,0-.18-5.79h3.45l.22,3.55h.09a7.84,7.84,0,0,1,7.08-4c3,0,7.56,1.76,7.56,9.12v12.78H627.9V340.58c0-3.47-1.28-6.33-4.95-6.33a5.69,5.69,0,0,0-5.52,5.79v12.88h-3.86Z" transform="translate(-61.43 -98.43)"/><path class="cls-2" d="M653.39,352.12a14.18,14.18,0,0,1-6.15,1.28c-6.47,0-10.67-4.42-10.67-11S641.08,331,648.08,331a13.18,13.18,0,0,1,5.39,1.11l-.88,3a9.09,9.09,0,0,0-4.51-1c-4.91,0-7.57,3.65-7.57,8.11,0,5,3.18,8,7.43,8a11,11,0,0,0,4.79-1.06Z" transform="translate(-61.43 -98.43)"/><path class="cls-2" d="M659.84,342.92c.09,5.27,3.45,7.44,7.34,7.44a14.19,14.19,0,0,0,5.93-1.11l.66,2.76a17.18,17.18,0,0,1-7.11,1.38c-6.6,0-10.54-4.37-10.54-10.84s3.81-11.55,10-11.55c7,0,8.84,6.16,8.84,10.09a13.91,13.91,0,0,1-.12,1.82Zm11.42-2.76c0-2.48-1-6.33-5.4-6.33-3.93,0-5.67,3.63-6,6.33Z" transform="translate(-61.43 -98.43)"/></svg>